<?xml version="1.0" standalone="no"?>
<!DOCTYPE svg PUBLIC "-//W3C//DTD SVG 20010904//EN"
 "http://www.w3.org/TR/2001/REC-SVG-20010904/DTD/svg10.dtd">
<svg version="1.0" xmlns="http://www.w3.org/2000/svg"
 width="500.000000pt" height="500.000000pt" viewBox="0 0 500.000000 500.000000"
 preserveAspectRatio="xMidYMid meet">
<metadata>
Created by potrace 1.11, written by Peter Selinger 2001-2013
</metadata>
<g transform="translate(0.000000,500.000000) scale(0.100000,-0.100000)"
fill="#000000" stroke="none">
<path d="M1180 3585 l0 -235 -590 0 -590 0 0 -100 0 -100 590 0 590 0 0 -645
0 -645 -590 0 -590 0 0 -105 0 -105 590 0 590 0 0 -235 0 -235 706 0 706 0
122 25 c490 99 855 374 1012 763 44 109 70 212 86 336 l12 96 588 0 588 0 0
105 0 105 -589 0 -588 0 -7 68 c-29 288 -145 540 -336 732 -175 176 -397 295
-693 372 l-122 32 -742 4 -743 3 0 -236z m1510 6 c181 -40 356 -112 490 -200
85 -56 204 -175 265 -265 220 -325 231 -861 24 -1209 -156 -263 -465 -452
-844 -517 -108 -18 -162 -20 -681 -20 l-564 0 0 1121 0 1120 603 -3 c589 -3
604 -4 707 -27z"/>
</g>
</svg>
