<?xml version="1.0" encoding="utf-8"?>
<!-- Generator: Adobe Illustrator 17.0.0, SVG Export Plug-In . SVG Version: 6.00 Build 0)  -->
<!DOCTYPE svg PUBLIC "-//W3C//DTD SVG 1.1//EN" "http://www.w3.org/Graphics/SVG/1.1/DTD/svg11.dtd">
<svg version="1.1" id="Layer_1" xmlns="http://www.w3.org/2000/svg" xmlns:xlink="http://www.w3.org/1999/xlink" x="0px" y="0px"
	 width="500px" height="500px" viewBox="0 0 500 500" enable-background="new 0 0 500 500" xml:space="preserve">
<g>
	<g>
		<defs>
			<rect id="SVGID_1_" width="500" height="500"/>
		</defs>
		<clipPath id="SVGID_2_">
			<use xlink:href="#SVGID_1_"  overflow="visible"/>
		</clipPath>
		<path clip-path="url(#SVGID_2_)" fill="#FFFFFF" d="M196.875,259.375c-1.562-6.25-3.125-12.5-6.25-25
			c-3.125-9.375-4.688-14.062-7.812-18.75c-3.125-7.812-4.688-10.938-7.812-18.75c-1.563-4.688-6.25-15.625-7.812-21.875
			c-1.563-7.812,0-14.062,3.125-18.75c4.688-4.688,15.625-7.812,21.875-6.25c6.25,1.563,10.938,7.812,14.062,12.5
			c4.688,7.812,6.25,9.375,10.938,23.438c6.25,15.625,9.375,29.687,9.375,34.375l1.562,7.812c0,0,0-17.188,0-18.75
			c0-15.625-1.562-28.125,0-45.312c0-1.562,1.563-9.375,1.563-10.938c1.562-7.812,4.688-12.5,10.938-15.625
			c6.25-3.125,14.062-3.125,21.875,0c6.25,3.125,9.375,7.812,10.938,15.625c0,1.563,1.562,15.625,1.562,17.188
			c0,15.625,0,25,0,34.375c0,3.125,0,25,0,23.438c1.562-10.937,1.562-50,4.688-60.937c1.562-6.25,6.25-10.938,12.5-14.062
			c6.25-3.125,17.188-1.562,21.875,3.125c4.688,4.688,6.25,10.938,7.812,18.75c0,6.25,0,14.062,0,18.75c0,14.062,0,20.312,0,32.812
			c0,0,0,4.688,0,3.125c1.562-4.688,3.125-7.812,4.688-10.938c0-1.562,3.125-9.375,6.25-14.062c1.562-3.125,3.125-6.25,6.25-10.937
			c3.125-4.688,6.25-6.25,10.938-9.375c7.812-3.125,17.188,1.563,20.312,9.375c1.563,3.125,0,10.937,0,17.188
			c-1.562,9.375-4.687,20.312-6.25,25c-1.563,6.25-4.688,18.75-4.688,25c-1.562,6.25-3.125,21.875-6.25,28.125
			c-1.562,4.688-6.25,15.625-10.938,21.875c0,0-17.188,18.75-18.75,28.125c-1.562,9.375-1.562,9.375-1.562,15.625
			c0,6.25,1.562,14.062,1.562,14.062s-12.5,1.562-18.75,0c-6.25-1.562-14.062-12.5-15.625-17.188c-3.125-4.688-7.812-4.688-10.938,0
			c-3.125,6.25-10.938,17.188-17.188,17.188c-10.937,1.562-32.812,0-48.438,0c0,0,3.125-15.625-3.125-21.875
			c-4.688-4.687-12.5-12.5-17.188-17.188l-12.5-14.062c-4.688-6.25-9.375-17.188-18.75-31.25c-4.688-7.812-15.625-17.188-20.312-25
			c-3.125-6.25-4.688-15.625-3.125-20.312c3.125-9.375,10.938-14.062,21.875-12.5c7.812,0,12.5,3.125,18.75,7.812
			c3.125,3.125,9.375,7.812,12.5,10.938s3.125,4.688,6.25,7.813C196.875,262.5,196.875,264.062,196.875,259.375"/>
	</g>
	<g>
		<defs>
			<rect id="SVGID_3_" width="500" height="500"/>
		</defs>
		<clipPath id="SVGID_4_">
			<use xlink:href="#SVGID_3_"  overflow="visible"/>
		</clipPath>
		
			<path clip-path="url(#SVGID_4_)" fill="none" stroke="#000000" stroke-width="0.75" stroke-linecap="round" stroke-linejoin="round" d="
			M196.875,259.375c-1.562-6.25-3.125-12.5-6.25-25c-3.125-9.375-4.688-14.062-7.812-18.75c-3.125-7.812-4.688-10.938-7.812-18.75
			c-1.563-4.688-6.25-15.625-7.812-21.875c-1.563-7.812,0-14.062,3.125-18.75c4.688-4.688,15.625-7.812,21.875-6.25
			c6.25,1.563,10.938,7.812,14.062,12.5c4.688,7.812,6.25,9.375,10.938,23.438c6.25,15.625,9.375,29.687,9.375,34.375l1.562,7.812
			c0,0,0-17.188,0-18.75c0-15.625-1.562-28.125,0-45.312c0-1.562,1.563-9.375,1.563-10.938c1.562-7.812,4.688-12.5,10.938-15.625
			c6.25-3.125,14.062-3.125,21.875,0c6.25,3.125,9.375,7.812,10.938,15.625c0,1.563,1.562,15.625,1.562,17.188
			c0,15.625,0,25,0,34.375c0,3.125,0,25,0,23.438c1.562-10.937,1.562-50,4.688-60.937c1.562-6.25,6.25-10.938,12.5-14.062
			c6.25-3.125,17.188-1.562,21.875,3.125c4.688,4.688,6.25,10.938,7.812,18.75c0,6.25,0,14.062,0,18.75c0,14.062,0,20.312,0,32.812
			c0,0,0,4.688,0,3.125c1.562-4.688,3.125-7.812,4.688-10.938c0-1.562,3.125-9.375,6.25-14.062c1.562-3.125,3.125-6.25,6.25-10.937
			c3.125-4.688,6.25-6.25,10.938-9.375c7.812-3.125,17.188,1.563,20.312,9.375c1.563,3.125,0,10.937,0,17.188
			c-1.562,9.375-4.687,20.312-6.25,25c-1.563,6.25-4.688,18.75-4.688,25c-1.562,6.25-3.125,21.875-6.25,28.125
			c-1.562,4.688-6.25,15.625-10.938,21.875c0,0-17.188,18.75-18.75,28.125c-1.562,9.375-1.562,9.375-1.562,15.625
			c0,6.25,1.562,14.062,1.562,14.062s-12.5,1.562-18.75,0c-6.25-1.562-14.062-12.5-15.625-17.188c-3.125-4.688-7.812-4.688-10.938,0
			c-3.125,6.25-10.938,17.188-17.188,17.188c-10.937,1.562-32.812,0-48.438,0c0,0,3.125-15.625-3.125-21.875
			c-4.688-4.687-12.5-12.5-17.188-17.188l-12.5-14.062c-4.688-6.25-9.375-17.188-18.75-31.25c-4.688-7.812-15.625-17.188-20.312-25
			c-3.125-6.25-4.688-15.625-3.125-20.312c3.125-9.375,10.938-14.062,21.875-12.5c7.812,0,12.5,3.125,18.75,7.812
			c3.125,3.125,9.375,7.812,12.5,10.938s3.125,4.688,6.25,7.813C196.875,262.5,196.875,264.062,196.875,259.375"/>
	</g>
	<g>
		<defs>
			<rect id="SVGID_5_" width="500" height="500"/>
		</defs>
		<clipPath id="SVGID_6_">
			<use xlink:href="#SVGID_5_"  overflow="visible"/>
		</clipPath>
		
			<line clip-path="url(#SVGID_6_)" fill="none" stroke="#000000" stroke-width="0.75" stroke-linecap="round" x1="306.25" y1="323.438" x2="306.25" y2="270.312"/>
	</g>
	<g>
		<defs>
			<rect id="SVGID_7_" width="500" height="500"/>
		</defs>
		<clipPath id="SVGID_8_">
			<use xlink:href="#SVGID_7_"  overflow="visible"/>
		</clipPath>
		
			<line clip-path="url(#SVGID_8_)" fill="none" stroke="#000000" stroke-width="0.75" stroke-linecap="round" x1="275" y1="323.438" x2="273.438" y2="270.312"/>
	</g>
	<g>
		<defs>
			<rect id="SVGID_9_" width="500" height="500"/>
		</defs>
		<clipPath id="SVGID_10_">
			<use xlink:href="#SVGID_9_"  overflow="visible"/>
		</clipPath>
		
			<line clip-path="url(#SVGID_10_)" fill="none" stroke="#000000" stroke-width="0.75" stroke-linecap="round" x1="243.75" y1="270.312" x2="243.75" y2="323.438"/>
	</g>
</g>
</svg>
