<?xml version="1.0" encoding="utf-8"?>
<!-- Generator: Adobe Illustrator 17.0.0, SVG Export Plug-In . SVG Version: 6.00 Build 0)  -->
<!DOCTYPE svg PUBLIC "-//W3C//DTD SVG 1.1//EN" "http://www.w3.org/Graphics/SVG/1.1/DTD/svg11.dtd">
<svg version="1.1" id="Layer_1" xmlns="http://www.w3.org/2000/svg" xmlns:xlink="http://www.w3.org/1999/xlink" x="0px" y="0px"
	 width="350px" height="500px" viewBox="0 0 350 500" enable-background="new 0 0 350 500" xml:space="preserve">
<rect x="0" y="0" fill="#E6E7E8" stroke="#000000" stroke-width="2" stroke-miterlimit="10" width="350" height="500"/>
<polygon fill="#FFFFFF" stroke="#000000" stroke-miterlimit="10" points="109.761,269.33 240.239,269.33 259.569,250 
	240.239,230.67 109.761,230.67 90.431,250 "/>
<polygon fill="#FFFFFF" stroke="#000000" stroke-miterlimit="10" points="109.761,100.192 240.239,100.192 259.569,80.862 
	240.239,61.532 109.761,61.532 90.431,80.862 "/>
<polygon fill="#FFFFFF" stroke="#000000" stroke-miterlimit="10" points="109.761,438.468 240.239,438.468 259.569,419.138 
	240.239,399.808 109.761,399.808 90.431,419.138 "/>
<polygon fill="#FFFFFF" stroke="#000000" stroke-miterlimit="10" points="71.101,269.33 71.101,399.808 90.431,419.138 
	109.761,399.808 109.761,269.33 90.431,250 "/>
<polygon fill="#FFFFFF" stroke="#000000" stroke-miterlimit="10" points="240.239,269.33 240.239,399.808 259.569,419.138 
	278.899,399.808 278.899,269.33 259.569,250 "/>
<polygon fill="#FFFFFF" stroke="#000000" stroke-miterlimit="10" points="71.101,100.192 71.101,230.67 90.431,250 109.761,230.67 
	109.761,100.192 90.431,80.862 "/>
<polygon fill="#FFFFFF" stroke="#000000" stroke-miterlimit="10" points="240.239,100.192 240.239,230.67 259.569,250 
	278.899,230.67 278.899,100.192 259.569,80.862 "/>
</svg>
