<?xml version="1.0" encoding="utf-8"?>
<!-- Generator: Adobe Illustrator 17.0.0, SVG Export Plug-In . SVG Version: 6.00 Build 0)  -->
<!DOCTYPE svg PUBLIC "-//W3C//DTD SVG 1.1//EN" "http://www.w3.org/Graphics/SVG/1.1/DTD/svg11.dtd">
<svg version="1.1"
	 id="svg2" inkscape:version="0.46" sodipodi:docname="NAND ANSI.svg" sodipodi:version="0.32" inkscape:output_extension="org.inkscape.output.svg.inkscape" xmlns:cc="http://creativecommons.org/ns#" xmlns:dc="http://purl.org/dc/elements/1.1/" xmlns:rdf="http://www.w3.org/1999/02/22-rdf-syntax-ns#" xmlns:inkscape="http://www.inkscape.org/namespaces/inkscape" xmlns:sodipodi="http://sodipodi.sourceforge.net/DTD/sodipodi-0.dtd" xmlns:svg="http://www.w3.org/2000/svg"
	 xmlns="http://www.w3.org/2000/svg" xmlns:xlink="http://www.w3.org/1999/xlink" x="0px" y="0px" width="80px" height="50px"
	 viewBox="10 0 80 50" enable-background="new 10 0 80 50" xml:space="preserve">
<ellipse fill="#FFFFFF" cx="75.614" cy="25" rx="4.998" ry="5.075"/>
<path fill="#FFFFFF" d="M22.958,3.581c0,0,16.51,0.001,22.014,0C52.441,3.579,65.797,3.576,65.797,25
	c0,21.419-13.846,21.419-21.419,21.419c-5.355,0-21.419,0-21.419,0"/>
<defs>
	
	
		<inkscape:perspective  inkscape:persp3d-origin="25 : 10 : 1" inkscape:vp_y="0 : 1000 : 0" inkscape:vp_z="50 : 15 : 1" id="perspective2714" sodipodi:type="inkscape:persp3d" inkscape:vp_x="0 : 15 : 1">
		</inkscape:perspective>
	
		<inkscape:perspective  inkscape:persp3d-origin="0.5 : 0.33333333 : 1" inkscape:vp_y="0 : 1000 : 0" inkscape:vp_z="1 : 0.5 : 1" id="perspective2806" sodipodi:type="inkscape:persp3d" inkscape:vp_x="0 : 0.5 : 1">
		</inkscape:perspective>
	
		<inkscape:perspective  inkscape:persp3d-origin="372.04724 : 350.78739 : 1" inkscape:vp_y="0 : 1000 : 0" inkscape:vp_z="744.09448 : 526.18109 : 1" id="perspective2819" sodipodi:type="inkscape:persp3d" inkscape:vp_x="0 : 526.18109 : 1">
		</inkscape:perspective>
	
		<inkscape:perspective  inkscape:persp3d-origin="75 : 40 : 1" inkscape:vp_y="0 : 1000 : 0" inkscape:vp_z="150 : 60 : 1" id="perspective2777" sodipodi:type="inkscape:persp3d" inkscape:vp_x="0 : 60 : 1">
		</inkscape:perspective>
	
		<inkscape:perspective  inkscape:persp3d-origin="50 : 33.333333 : 1" inkscape:vp_y="0 : 1000 : 0" inkscape:vp_z="100 : 50 : 1" id="perspective3275" sodipodi:type="inkscape:persp3d" inkscape:vp_x="0 : 50 : 1">
		</inkscape:perspective>
	
		<inkscape:perspective  inkscape:persp3d-origin="32 : 21.333333 : 1" inkscape:vp_y="0 : 1000 : 0" inkscape:vp_z="64 : 32 : 1" id="perspective5533" sodipodi:type="inkscape:persp3d" inkscape:vp_x="0 : 32 : 1">
		</inkscape:perspective>
</defs>
<sodipodi:namedview  inkscape:window-x="33" inkscape:snap-bbox="true" inkscape:pageopacity="0.0" inkscape:window-height="874" inkscape:grid-bbox="true" inkscape:grid-points="true" inkscape:current-layer="layer1" inkscape:window-y="0" inkscape:document-units="px" inkscape:pageshadow="2" inkscape:window-width="1399" id="base" borderopacity="1.0" gridtolerance="10000" bordercolor="#666666" showgrid="true" inkscape:cx="78.283307" inkscape:cy="16.442843" pagecolor="#ffffff" inkscape:zoom="16">
	
		<inkscape:grid  type="xygrid" color="#0000ff" id="GridFromPre046Settings" spacingx="1px" visible="true" enabled="true" spacingy="1px" empopacity="0.4" empspacing="5" originy="0px" originx="0px" empcolor="#0000ff" opacity="0.2">
		</inkscape:grid>
</sodipodi:namedview>
<g id="layer1" inkscape:groupmode="layer" inkscape:label="Layer 1">
	<path id="path2884" sodipodi:nodetypes="ccccccsccccsssssccc" d="M19.388,0.011v1.785v46.409v1.784h1.785h23.8
		c14.079,0,24.989-11.245,24.989-24.989S59.052,0.011,44.973,0.011c0,0,0,0-23.8,0H19.388z M22.958,3.581c9.967,0,16.319,0,19.039,0
		c1.487,0,2.232,0,2.603,0c0.186,0,0.289,0,0.335,0c0.024,0,0.031,0,0.037,0c12.196,0,20.825,9.546,20.825,21.419
		s-9.223,21.419-21.419,21.419H22.958V3.581z"/>
	
		<path id="path4008" sodipodi:ry="4" sodipodi:rx="4" sodipodi:cy="25" sodipodi:cx="75" sodipodi:type="arc" fill="none" stroke="#000000" stroke-width="3" d="
		M80.612,25c0,2.76-2.238,4.998-4.998,4.998S70.616,27.76,70.616,25s2.238-4.998,4.998-4.998S80.612,22.24,80.612,25z"/>
</g>
</svg>
