<?xml version="1.0" encoding="utf-8"?>
<!-- Generator: Adobe Illustrator 17.0.0, SVG Export Plug-In . SVG Version: 6.00 Build 0)  -->
<!DOCTYPE svg PUBLIC "-//W3C//DTD SVG 1.1//EN" "http://www.w3.org/Graphics/SVG/1.1/DTD/svg11.dtd">
<svg version="1.1"
	 id="svg2" inkscape:version="0.46" sodipodi:docname="NOR ANSI.svg" sodipodi:version="0.32" inkscape:output_extension="org.inkscape.output.svg.inkscape" xmlns:cc="http://creativecommons.org/ns#" xmlns:dc="http://purl.org/dc/elements/1.1/" xmlns:rdf="http://www.w3.org/1999/02/22-rdf-syntax-ns#" xmlns:inkscape="http://www.inkscape.org/namespaces/inkscape" xmlns:sodipodi="http://sodipodi.sourceforge.net/DTD/sodipodi-0.dtd" xmlns:svg="http://www.w3.org/2000/svg"
	 xmlns="http://www.w3.org/2000/svg" xmlns:xlink="http://www.w3.org/1999/xlink" x="0px" y="0px" width="80px" height="50px"
	 viewBox="10 0 80 50" enable-background="new 10 0 80 50" xml:space="preserve">
<path fill="#FFFFFF" d="M22.384,3.741L28.363,25l-5.94,21.259l13.756,2.032c0,0,36.376-2.032,36.376-23.291
	S36.337,2.334,36.337,2.334"/>
<defs>
	
	
		<inkscape:perspective  inkscape:persp3d-origin="25 : 10 : 1" inkscape:vp_y="0 : 1000 : 0" inkscape:vp_z="50 : 15 : 1" id="perspective2714" sodipodi:type="inkscape:persp3d" inkscape:vp_x="0 : 15 : 1">
		</inkscape:perspective>
	
		<inkscape:perspective  inkscape:persp3d-origin="0.5 : 0.33333333 : 1" inkscape:vp_y="0 : 1000 : 0" inkscape:vp_z="1 : 0.5 : 1" id="perspective2806" sodipodi:type="inkscape:persp3d" inkscape:vp_x="0 : 0.5 : 1">
		</inkscape:perspective>
	
		<inkscape:perspective  inkscape:persp3d-origin="372.04724 : 350.78739 : 1" inkscape:vp_y="0 : 1000 : 0" inkscape:vp_z="744.09448 : 526.18109 : 1" id="perspective2819" sodipodi:type="inkscape:persp3d" inkscape:vp_x="0 : 526.18109 : 1">
		</inkscape:perspective>
	
		<inkscape:perspective  inkscape:persp3d-origin="75 : 40 : 1" inkscape:vp_y="0 : 1000 : 0" inkscape:vp_z="150 : 60 : 1" id="perspective2777" sodipodi:type="inkscape:persp3d" inkscape:vp_x="0 : 60 : 1">
		</inkscape:perspective>
	
		<inkscape:perspective  inkscape:persp3d-origin="50 : 33.333333 : 1" inkscape:vp_y="0 : 1000 : 0" inkscape:vp_z="100 : 50 : 1" id="perspective3275" sodipodi:type="inkscape:persp3d" inkscape:vp_x="0 : 50 : 1">
		</inkscape:perspective>
	
		<inkscape:perspective  inkscape:persp3d-origin="32 : 21.333333 : 1" inkscape:vp_y="0 : 1000 : 0" inkscape:vp_z="64 : 32 : 1" id="perspective5533" sodipodi:type="inkscape:persp3d" inkscape:vp_x="0 : 32 : 1">
		</inkscape:perspective>
	
		<inkscape:perspective  inkscape:persp3d-origin="25 : 16.666667 : 1" inkscape:vp_y="0 : 1000 : 0" inkscape:vp_z="50 : 25 : 1" id="perspective2557" sodipodi:type="inkscape:persp3d" inkscape:vp_x="0 : 25 : 1">
		</inkscape:perspective>
</defs>
<sodipodi:namedview  inkscape:window-x="37" inkscape:snap-bbox="true" inkscape:pageopacity="0.0" inkscape:window-height="874" inkscape:grid-bbox="true" inkscape:grid-points="true" inkscape:current-layer="layer1" inkscape:window-y="-4" inkscape:document-units="px" inkscape:pageshadow="2" inkscape:window-width="1399" id="base" borderopacity="1.0" gridtolerance="10000" bordercolor="#666666" showgrid="true" inkscape:cx="78.677644" inkscape:cy="22.102344" pagecolor="#ffffff" inkscape:zoom="1">
	
		<inkscape:grid  type="xygrid" color="#0000ff" id="GridFromPre046Settings" spacingx="1px" visible="true" enabled="true" spacingy="1px" empopacity="0.4" empspacing="5" originy="0px" originx="0px" empcolor="#0000ff" opacity="0.2">
		</inkscape:grid>
</sodipodi:namedview>
<g id="layer1" inkscape:groupmode="layer" inkscape:label="Layer 1">
	<g id="g2560" transform="translate(26.5,-39.5)" inkscape:label="Layer 1">
		<path id="path4973" sodipodi:nodetypes="ccsccccscccccccccsccsc" d="M-10.831,39.489l2.501,3.049c0,0,7.073,8.754,7.073,21.962
			S-8.33,86.462-8.33,86.462l-2.501,3.049h3.947h17.508c3.011,0,9.617,0.031,17.039-3.009c7.422-3.04,15.678-9.183,22.12-21.103
			L48.139,64.5l1.641-0.899C36.896,39.759,16.572,39.489,10.623,39.489H-6.884H-10.831z M-3.484,43.241h14.107
			c5.858,0,22.869-0.163,34.976,21.259c-5.961,10.541-13.158,15.862-19.657,18.523c-6.704,2.745-12.308,2.736-15.319,2.736H-3.445
			c2.344-3.887,5.94-11.316,5.94-21.259C2.495,54.529-1.143,47.117-3.484,43.241z"/>
		<ellipse fill="#FFFFFF" cx="52.829" cy="64.5" rx="5.002" ry="5.08"/>
		
			<path id="path2604" sodipodi:ry="4" sodipodi:rx="4" sodipodi:cy="25" sodipodi:cx="75" sodipodi:type="arc" fill="none" stroke="#000000" stroke-width="3" d="
			M57.831,64.5c0,2.762-2.24,5.002-5.002,5.002s-5.002-2.24-5.002-5.002c0-2.762,2.24-5.002,5.002-5.002S57.831,61.738,57.831,64.5z
			"/>
	</g>
</g>
</svg>
