<?xml version="1.0" encoding="utf-8"?>
<!-- Generator: Adobe Illustrator 17.0.0, SVG Export Plug-In . SVG Version: 6.00 Build 0)  -->
<!DOCTYPE svg PUBLIC "-//W3C//DTD SVG 1.1//EN" "http://www.w3.org/Graphics/SVG/1.1/DTD/svg11.dtd">
<svg version="1.1"
	 id="svg2" inkscape:version="0.46" sodipodi:docname="XOR ANSI.svg" sodipodi:version="0.32" inkscape:output_extension="org.inkscape.output.svg.inkscape" xmlns:cc="http://creativecommons.org/ns#" xmlns:dc="http://purl.org/dc/elements/1.1/" xmlns:rdf="http://www.w3.org/1999/02/22-rdf-syntax-ns#" xmlns:inkscape="http://www.inkscape.org/namespaces/inkscape" xmlns:sodipodi="http://sodipodi.sourceforge.net/DTD/sodipodi-0.dtd" xmlns:svg="http://www.w3.org/2000/svg"
	 xmlns="http://www.w3.org/2000/svg" xmlns:xlink="http://www.w3.org/1999/xlink" x="0px" y="0px" width="80px" height="50px"
	 viewBox="10 0 80 50" enable-background="new 10 0 80 50" xml:space="preserve">
<path fill="#FFFFFF" d="M28.787,3.383l5.992,21.304l-5.953,21.304l13.785,2.036c0,0,37.87-2.036,37.87-23.341
	S42.767,1.973,42.767,1.973"/>
<defs>
	
	
		<inkscape:perspective  inkscape:persp3d-origin="25 : 10 : 1" inkscape:vp_y="0 : 1000 : 0" inkscape:vp_z="50 : 15 : 1" id="perspective2714" sodipodi:type="inkscape:persp3d" inkscape:vp_x="0 : 15 : 1">
		</inkscape:perspective>
	
		<inkscape:perspective  inkscape:persp3d-origin="0.5 : 0.33333333 : 1" inkscape:vp_y="0 : 1000 : 0" inkscape:vp_z="1 : 0.5 : 1" id="perspective2806" sodipodi:type="inkscape:persp3d" inkscape:vp_x="0 : 0.5 : 1">
		</inkscape:perspective>
	
		<inkscape:perspective  inkscape:persp3d-origin="372.04724 : 350.78739 : 1" inkscape:vp_y="0 : 1000 : 0" inkscape:vp_z="744.09448 : 526.18109 : 1" id="perspective2819" sodipodi:type="inkscape:persp3d" inkscape:vp_x="0 : 526.18109 : 1">
		</inkscape:perspective>
	
		<inkscape:perspective  inkscape:persp3d-origin="75 : 40 : 1" inkscape:vp_y="0 : 1000 : 0" inkscape:vp_z="150 : 60 : 1" id="perspective2777" sodipodi:type="inkscape:persp3d" inkscape:vp_x="0 : 60 : 1">
		</inkscape:perspective>
	
		<inkscape:perspective  inkscape:persp3d-origin="50 : 33.333333 : 1" inkscape:vp_y="0 : 1000 : 0" inkscape:vp_z="100 : 50 : 1" id="perspective3275" sodipodi:type="inkscape:persp3d" inkscape:vp_x="0 : 50 : 1">
		</inkscape:perspective>
	
		<inkscape:perspective  inkscape:persp3d-origin="32 : 21.333333 : 1" inkscape:vp_y="0 : 1000 : 0" inkscape:vp_z="64 : 32 : 1" id="perspective5533" sodipodi:type="inkscape:persp3d" inkscape:vp_x="0 : 32 : 1">
		</inkscape:perspective>
	
		<inkscape:perspective  inkscape:persp3d-origin="25 : 16.666667 : 1" inkscape:vp_y="0 : 1000 : 0" inkscape:vp_z="50 : 25 : 1" id="perspective2557" sodipodi:type="inkscape:persp3d" inkscape:vp_x="0 : 25 : 1">
		</inkscape:perspective>
</defs>
<sodipodi:namedview  inkscape:window-x="33" inkscape:snap-bbox="true" inkscape:pageopacity="0.0" inkscape:window-height="874" inkscape:grid-bbox="true" inkscape:grid-points="true" inkscape:current-layer="layer1" inkscape:window-y="0" inkscape:document-units="px" inkscape:pageshadow="2" inkscape:window-width="1399" id="base" borderopacity="1.0" gridtolerance="10000" bordercolor="#666666" showgrid="true" inkscape:cx="25.938116" inkscape:cy="17.23005" pagecolor="#ffffff" inkscape:zoom="5.6568542">
	
		<inkscape:grid  type="xygrid" color="#0000ff" id="GridFromPre046Settings" spacingx="1px" visible="true" enabled="true" spacingy="1px" empopacity="0.4" empspacing="5" originy="0px" originx="0px" empcolor="#0000ff" opacity="0.2">
		</inkscape:grid>
</sodipodi:namedview>
<g id="layer1" inkscape:groupmode="layer" inkscape:label="Layer 1">
	<g id="g2560" transform="translate(26.5,-39.5)" inkscape:label="Layer 1">
		<path id="path3516" sodipodi:nodetypes="ccccsccccsc" d="M-3.294,85.805c-2.001,3.313-2.82,3.76-2.82,3.76h-4.582l2.506-3.055
			c0,0,7.088-8.772,7.088-22.01s-7.088-22.009-7.088-22.009l-2.506-3.055h4.582c0.979,1.175,1.782,2.075,2.781,3.76
			c2.347,3.885,5.992,11.313,5.992,21.304C2.659,74.465-0.972,81.894-3.294,85.805z"/>
		<path id="path4973" sodipodi:nodetypes="ccsccccscccccccccsccsc" d="M-3.489,39.437l2.506,3.055c0,0,7.088,8.772,7.088,22.009
			s-7.088,22.009-7.088,22.009l-2.506,3.055h3.955H18.01c3.018,0,9.637,0.031,17.075-3.015c7.438-3.047,15.711-9.202,22.166-21.148
			l0.444-0.901L57.252,63.6C44.339,39.708,23.972,39.437,18.01,39.437H0.466H-3.489z M3.873,43.196H18.01
			c5.87,0,22.917-0.163,35.05,21.304c-5.974,10.563-13.186,15.895-19.699,18.562c-6.718,2.751-12.334,2.742-15.352,2.742H3.912
			c2.348-3.895,5.953-11.34,5.953-21.304C9.865,54.509,6.219,47.081,3.873,43.196z"/>
	</g>
</g>
</svg>
