<svg fill="#888" xmlns="http://www.w3.org/2000/svg" width="18" height="18" viewBox="0 0 18 18">
<path d="M15.75,2.257H2.25c-0.825,0-1.5,0.675-1.5,1.5V6.75h1.5V3.742h13.5v10.523H2.25V11.25h-1.5v3.007 c0,0.825,0.675,1.485,1.5,1.485h13.5c0.825,0,1.5-0.66,1.5-1.485v-10.5C17.25,2.925,16.575,2.258,15.75,2.257z M5.25,12l3-3l-3-3 v2.25h-4.5v1.5h4.5V12z"/>
<path d="M14.041,11.966c-0.13,0.053-0.289,0.079-0.479,0.079c-0.155,0-0.31-0.055-0.462-0.165 c-0.152-0.109-0.349-0.324-0.588-0.644c-0.457,0.589-1.01,0.883-1.657,0.883c-0.519,0-0.957-0.164-1.316-0.494 C9.18,11.296,9,10.886,9,10.396c0-0.313,0.094-0.609,0.281-0.89c0.188-0.279,0.537-0.597,1.051-0.951 c-0.487-0.571-0.73-1.069-0.73-1.494c0-0.41,0.136-0.743,0.407-0.998c0.271-0.255,0.612-0.382,1.026-0.382 c0.383,0,0.699,0.109,0.949,0.327c0.248,0.219,0.373,0.521,0.373,0.908c0,0.278-0.085,0.545-0.255,0.8s-0.487,0.552-0.954,0.892 l1.297,1.6c0.199-0.51,0.348-0.864,0.446-1.063c0.098-0.199,0.236-0.371,0.415-0.517c0.179-0.145,0.408-0.217,0.689-0.217h0.035 v0.602h-0.035c-0.179,0-0.35,0.095-0.514,0.286s-0.381,0.656-0.65,1.397c0.22,0.264,0.391,0.453,0.514,0.567 s0.261,0.171,0.414,0.171c0.07,0,0.163-0.009,0.281-0.026V11.966z M12.143,10.788l-1.477-1.819 c-0.347,0.252-0.59,0.484-0.732,0.696c-0.142,0.213-0.213,0.447-0.213,0.705c0,0.322,0.113,0.594,0.341,0.813 c0.227,0.22,0.497,0.329,0.811,0.329C11.361,11.513,11.784,11.271,12.143,10.788z M10.828,8.195 c0.346-0.24,0.587-0.453,0.723-0.637c0.137-0.185,0.205-0.381,0.205-0.589c0-0.229-0.07-0.401-0.209-0.519 c-0.14-0.117-0.308-0.176-0.504-0.176c-0.229,0-0.419,0.07-0.573,0.208c-0.153,0.14-0.23,0.332-0.23,0.578 C10.239,7.378,10.436,7.756,10.828,8.195z"/>
</svg>
