<svg width="180" height="40" viewBox="0 0 180 40" fill="none" xmlns="http://www.w3.org/2000/svg">
<path d="M4 0.5H176C177.933 0.5 179.5 2.067 179.5 4V36C179.5 37.933 177.933 39.5 176 39.5H4C2.067 39.5 0.5 37.933 0.5 36V4C0.500001 2.067 2.067 0.5 4 0.5Z" fill="white"/>
<path d="M4 0.5H176C177.933 0.5 179.5 2.067 179.5 4V36C179.5 37.933 177.933 39.5 176 39.5H4C2.067 39.5 0.5 37.933 0.5 36V4C0.500001 2.067 2.067 0.5 4 0.5Z" stroke="#747775"/>
<mask id="mask0_1298_12396" style="mask-type:alpha" maskUnits="userSpaceOnUse" x="12" y="10" width="20" height="20">
<path d="M31.3987 18.1814H21.9849V22.0445H27.3598C27.1286 23.294 26.4294 24.3596 25.3676 25.0712C24.4746 25.6716 23.3266 26.0211 21.9849 26.0211C19.3864 26.0211 17.1823 24.2666 16.3947 21.9004C16.1952 21.2989 16.0853 20.6599 16.0853 19.9983C16.0853 19.3367 16.1952 18.6966 16.3947 18.0962C17.1823 15.7311 19.3864 13.9755 21.9849 13.9755C23.4524 13.9755 24.767 14.4816 25.8039 15.4713L28.6653 12.6057C26.936 10.9908 24.6786 10 21.9849 10C18.0832 10 14.705 12.2414 13.0618 15.5076C12.383 16.8592 12 18.3834 12 19.9994C12 21.6155 12.383 23.1396 13.0618 24.4913C14.705 27.7597 18.0832 30 21.9849 30C24.6797 30 26.9485 29.1137 28.6018 27.5861C30.4887 25.8452 31.5732 23.2702 31.5732 20.2275C31.5732 19.5182 31.5131 18.835 31.3987 18.1825V18.1814Z" fill="#E94FFF"/>
</mask>
<g mask="url(#mask0_1298_12396)">
<g filter="url(#filter0_f_1298_12396)">
<g clip-path="url(#paint0_angular_1298_12396_clip_path)" data-figma-skip-parse="true"><g transform="matrix(0.00804129 -0.00805186 0.00804128 0.00805186 21.6819 19.7927)"><foreignObject x="-2105.64" y="-2105.64" width="4211.29" height="4211.29"><div xmlns="http://www.w3.org/1999/xhtml" style="background:conic-gradient(from 90deg,rgba(255, 70, 65, 1) 0deg,rgba(255, 70, 65, 1) 4.14555deg,rgba(49, 134, 255, 1) 39.154deg,rgba(49, 134, 255, 1) 72.0044deg,rgba(0, 165, 183, 1) 96.7463deg,rgba(14, 188, 95, 1) 120.897deg,rgba(14, 188, 95, 1) 154.722deg,rgba(108, 196, 0, 1) 179.136deg,rgba(255, 204, 0, 1) 203.588deg,rgba(255, 211, 20, 1) 226.915deg,rgba(255, 204, 0, 1) 251.688deg,rgba(255, 106, 43, 1) 273.129deg,rgba(253, 70, 65, 1) 289.305deg,rgba(255, 70, 65, 1) 359.593deg,rgba(255, 70, 65, 1) 360deg);height:100%;width:100%;opacity:1"></div></foreignObject></g></g><path d="M9.25923 19.7927C9.25923 12.6759 15.0209 6.90668 22.1283 6.90668C29.2357 6.90668 34.9973 12.6759 34.9973 19.7927C34.9973 26.9094 29.2357 32.6786 22.1283 32.6786C15.0209 32.6786 9.25923 26.9094 9.25923 19.7927Z" data-figma-gradient-fill="{&#34;type&#34;:&#34;GRADIENT_ANGULAR&#34;,&#34;stops&#34;:[{&#34;color&#34;:{&#34;r&#34;:1.0,&#34;g&#34;:0.27450981736183167,&#34;b&#34;:0.25490197539329529,&#34;a&#34;:1.0},&#34;position&#34;:0.011515417136251926},{&#34;color&#34;:{&#34;r&#34;:0.19215686619281769,&#34;g&#34;:0.52549022436141968,&#34;b&#34;:1.0,&#34;a&#34;:1.0},&#34;position&#34;:0.10876122117042542},{&#34;color&#34;:{&#34;r&#34;:0.19215686619281769,&#34;g&#34;:0.52549022436141968,&#34;b&#34;:1.0,&#34;a&#34;:1.0},&#34;position&#34;:0.20001229643821716},{&#34;color&#34;:{&#34;r&#34;:0.0,&#34;g&#34;:0.64705884456634521,&#34;b&#34;:0.71764707565307617,&#34;a&#34;:1.0},&#34;position&#34;:0.26873961091041565},{&#34;color&#34;:{&#34;r&#34;:0.054901961237192154,&#34;g&#34;:0.73725491762161255,&#34;b&#34;:0.37254902720451355,&#34;a&#34;:1.0},&#34;position&#34;:0.33582508563995361},{&#34;color&#34;:{&#34;r&#34;:0.054901961237192154,&#34;g&#34;:0.73725491762161255,&#34;b&#34;:0.37254902720451355,&#34;a&#34;:1.0},&#34;position&#34;:0.42978334426879883},{&#34;color&#34;:{&#34;r&#34;:0.42528781294822693,&#34;g&#34;:0.77231442928314209,&#34;b&#34;:0.0,&#34;a&#34;:1.0},&#34;position&#34;:0.49760133028030396},{&#34;color&#34;:{&#34;r&#34;:1.0,&#34;g&#34;:0.80000001192092896,&#34;b&#34;:0.0,&#34;a&#34;:1.0},&#34;position&#34;:0.56552332639694214},{&#34;color&#34;:{&#34;r&#34;:1.0,&#34;g&#34;:0.82745099067687988,&#34;b&#34;:0.078431375324726105,&#34;a&#34;:1.0},&#34;position&#34;:0.63031959533691406},{&#34;color&#34;:{&#34;r&#34;:1.0,&#34;g&#34;:0.80000001192092896,&#34;b&#34;:0.0,&#34;a&#34;:1.0},&#34;position&#34;:0.69913208484649658},{&#34;color&#34;:{&#34;r&#34;:1.0,&#34;g&#34;:0.41842123866081238,&#34;b&#34;:0.16917318105697632,&#34;a&#34;:1.0},&#34;position&#34;:0.75869029760360718},{&#34;color&#34;:{&#34;r&#34;:0.99215686321258545,&#34;g&#34;:0.27450981736183167,&#34;b&#34;:0.25490197539329529,&#34;a&#34;:1.0},&#34;position&#34;:0.80362409353256226},{&#34;color&#34;:{&#34;r&#34;:1.0,&#34;g&#34;:0.27450981736183167,&#34;b&#34;:0.25490197539329529,&#34;a&#34;:1.0},&#34;position&#34;:0.99887031316757202}],&#34;stopsVar&#34;:[{&#34;color&#34;:{&#34;r&#34;:1.0,&#34;g&#34;:0.27450981736183167,&#34;b&#34;:0.25490197539329529,&#34;a&#34;:1.0},&#34;position&#34;:0.011515417136251926},{&#34;color&#34;:{&#34;r&#34;:0.19215686619281769,&#34;g&#34;:0.52549022436141968,&#34;b&#34;:1.0,&#34;a&#34;:1.0},&#34;position&#34;:0.10876122117042542},{&#34;color&#34;:{&#34;r&#34;:0.19215686619281769,&#34;g&#34;:0.52549022436141968,&#34;b&#34;:1.0,&#34;a&#34;:1.0},&#34;position&#34;:0.20001229643821716},{&#34;color&#34;:{&#34;r&#34;:0.0,&#34;g&#34;:0.64705884456634521,&#34;b&#34;:0.71764707565307617,&#34;a&#34;:1.0},&#34;position&#34;:0.26873961091041565},{&#34;color&#34;:{&#34;r&#34;:0.054901961237192154,&#34;g&#34;:0.73725491762161255,&#34;b&#34;:0.37254902720451355,&#34;a&#34;:1.0},&#34;position&#34;:0.33582508563995361},{&#34;color&#34;:{&#34;r&#34;:0.054901961237192154,&#34;g&#34;:0.73725491762161255,&#34;b&#34;:0.37254902720451355,&#34;a&#34;:1.0},&#34;position&#34;:0.42978334426879883},{&#34;color&#34;:{&#34;r&#34;:0.42528781294822693,&#34;g&#34;:0.77231442928314209,&#34;b&#34;:0.0,&#34;a&#34;:1.0},&#34;position&#34;:0.49760133028030396},{&#34;color&#34;:{&#34;r&#34;:1.0,&#34;g&#34;:0.80000001192092896,&#34;b&#34;:0.0,&#34;a&#34;:1.0},&#34;position&#34;:0.56552332639694214},{&#34;color&#34;:{&#34;r&#34;:1.0,&#34;g&#34;:0.82745099067687988,&#34;b&#34;:0.078431375324726105,&#34;a&#34;:1.0},&#34;position&#34;:0.63031959533691406},{&#34;color&#34;:{&#34;r&#34;:1.0,&#34;g&#34;:0.80000001192092896,&#34;b&#34;:0.0,&#34;a&#34;:1.0},&#34;position&#34;:0.69913208484649658},{&#34;color&#34;:{&#34;r&#34;:1.0,&#34;g&#34;:0.41842123866081238,&#34;b&#34;:0.16917318105697632,&#34;a&#34;:1.0},&#34;position&#34;:0.75869029760360718},{&#34;color&#34;:{&#34;r&#34;:0.99215686321258545,&#34;g&#34;:0.27450981736183167,&#34;b&#34;:0.25490197539329529,&#34;a&#34;:1.0},&#34;position&#34;:0.80362409353256226},{&#34;color&#34;:{&#34;r&#34;:1.0,&#34;g&#34;:0.27450981736183167,&#34;b&#34;:0.25490197539329529,&#34;a&#34;:1.0},&#34;position&#34;:0.99887031316757202}],&#34;transform&#34;:{&#34;m00&#34;:16.082571029663086,&#34;m01&#34;:16.082569122314453,&#34;m02&#34;:5.5993499755859375,&#34;m10&#34;:-16.103721618652344,&#34;m11&#34;:16.103721618652344,&#34;m12&#34;:19.792665481567383},&#34;opacity&#34;:1.0,&#34;blendMode&#34;:&#34;NORMAL&#34;,&#34;visible&#34;:true}"/>
</g>
<g filter="url(#filter1_f_1298_12396)">
<ellipse cx="22.0496" cy="20.2413" rx="5.39634" ry="2.83537" transform="rotate(24.4473 22.0496 20.2413)" fill="#3186FF"/>
</g>
<g filter="url(#filter2_f_1298_12396)">
<ellipse cx="35.3538" cy="18.2155" rx="7.43918" ry="3.09357" fill="#3186FF"/>
</g>
<g filter="url(#filter3_f_1298_12396)">
<ellipse cx="27.2744" cy="16.2195" rx="7.40854" ry="2.37805" fill="#FF4641"/>
</g>
<g filter="url(#filter4_f_1298_12396)">
<ellipse cx="31.5427" cy="12.9268" rx="7.40854" ry="2.37805" fill="#FF5B8B"/>
</g>
<g filter="url(#filter5_f_1298_12396)">
<ellipse cx="26.4817" cy="19.878" rx="8.5061" ry="3.10976" fill="#3186FF"/>
</g>
<g filter="url(#filter6_f_1298_12396)">
<ellipse cx="27.1842" cy="14.0197" rx="4.53882" ry="2.37805" transform="rotate(-28.6599 27.1842 14.0197)" fill="#FF4641"/>
</g>
</g>
<path d="M46.032 25.224C45.5 25.224 44.9913 25.1213 44.506 24.916C44.0207 24.7013 43.5913 24.3887 43.218 23.978C42.854 23.5673 42.5833 23.0587 42.406 22.452L43.862 21.864C44.0113 22.4053 44.2727 22.858 44.646 23.222C45.0193 23.586 45.486 23.768 46.046 23.768C46.3633 23.768 46.6573 23.712 46.928 23.6C47.208 23.488 47.432 23.3247 47.6 23.11C47.768 22.886 47.852 22.6153 47.852 22.298C47.852 21.9993 47.782 21.7473 47.642 21.542C47.502 21.3273 47.278 21.136 46.97 20.968C46.662 20.7907 46.27 20.618 45.794 20.45L45.164 20.226C44.8933 20.1233 44.618 19.9973 44.338 19.848C44.058 19.6987 43.7967 19.5167 43.554 19.302C43.3207 19.078 43.134 18.8167 42.994 18.518C42.854 18.2193 42.784 17.874 42.784 17.482C42.784 16.978 42.9147 16.5207 43.176 16.11C43.4467 15.6993 43.8153 15.3727 44.282 15.13C44.758 14.878 45.3087 14.752 45.934 14.752C46.578 14.752 47.1147 14.8687 47.544 15.102C47.9827 15.326 48.3233 15.5967 48.566 15.914C48.818 16.2313 48.9907 16.5347 49.084 16.824L47.698 17.412C47.642 17.216 47.5393 17.0247 47.39 16.838C47.25 16.6513 47.0587 16.4973 46.816 16.376C46.5827 16.2453 46.2933 16.18 45.948 16.18C45.6493 16.18 45.374 16.236 45.122 16.348C44.8793 16.46 44.6833 16.614 44.534 16.81C44.3847 16.9967 44.31 17.216 44.31 17.468C44.31 17.832 44.4593 18.1307 44.758 18.364C45.0567 18.588 45.4907 18.7933 46.06 18.98L46.704 19.204C47.0307 19.316 47.3527 19.4513 47.67 19.61C47.9873 19.7593 48.2767 19.9553 48.538 20.198C48.7993 20.4313 49.0047 20.7207 49.154 21.066C49.3127 21.402 49.392 21.8033 49.392 22.27C49.392 22.7833 49.2893 23.2313 49.084 23.614C48.888 23.9873 48.622 24.2953 48.286 24.538C47.9593 24.7713 47.5953 24.944 47.194 25.056C46.802 25.168 46.4147 25.224 46.032 25.224ZM50.825 25V17.86H52.337V25H50.825ZM51.581 16.81C51.301 16.81 51.0584 16.712 50.853 16.516C50.657 16.3107 50.559 16.068 50.559 15.788C50.559 15.4987 50.657 15.2607 50.853 15.074C51.0584 14.878 51.301 14.78 51.581 14.78C51.8704 14.78 52.113 14.878 52.309 15.074C52.505 15.2607 52.603 15.4987 52.603 15.788C52.603 16.068 52.505 16.3107 52.309 16.516C52.113 16.712 51.8704 16.81 51.581 16.81ZM57.3126 28.248C56.6873 28.248 56.1459 28.1453 55.6886 27.94C55.2406 27.744 54.8766 27.4873 54.5966 27.17C54.3166 26.862 54.1159 26.5447 53.9946 26.218L55.3946 25.63C55.5439 26.0033 55.7819 26.3067 56.1086 26.54C56.4446 26.7827 56.8459 26.904 57.3126 26.904C57.9753 26.904 58.4933 26.708 58.8666 26.316C59.2399 25.924 59.4266 25.3687 59.4266 24.65V23.964H59.3426C59.1186 24.2907 58.8106 24.5567 58.4186 24.762C58.0266 24.9673 57.5739 25.07 57.0606 25.07C56.4539 25.07 55.8939 24.916 55.3806 24.608C54.8766 24.3 54.4706 23.8707 54.1626 23.32C53.8639 22.76 53.7146 22.1067 53.7146 21.36C53.7146 20.604 53.8639 19.9507 54.1626 19.4C54.4706 18.84 54.8766 18.406 55.3806 18.098C55.8939 17.79 56.4539 17.636 57.0606 17.636C57.5739 17.636 58.0266 17.7387 58.4186 17.944C58.8106 18.14 59.1186 18.4107 59.3426 18.756H59.4266V17.86H60.8686V24.622C60.8686 25.3967 60.7146 26.0547 60.4066 26.596C60.1079 27.1373 59.6926 27.548 59.1606 27.828C58.6286 28.108 58.0126 28.248 57.3126 28.248ZM57.3266 23.698C57.6999 23.698 58.0453 23.6093 58.3626 23.432C58.6893 23.2453 58.9459 22.9793 59.1326 22.634C59.3286 22.2793 59.4266 21.8547 59.4266 21.36C59.4266 20.8373 59.3286 20.4033 59.1326 20.058C58.9459 19.7127 58.6893 19.4513 58.3626 19.274C58.0453 19.0967 57.6999 19.008 57.3266 19.008C56.9533 19.008 56.6033 19.0967 56.2766 19.274C55.9593 19.4513 55.7026 19.7173 55.5066 20.072C55.3106 20.4173 55.2126 20.8467 55.2126 21.36C55.2126 21.864 55.3106 22.2933 55.5066 22.648C55.7026 22.9933 55.9593 23.2547 56.2766 23.432C56.6033 23.6093 56.9533 23.698 57.3266 23.698ZM62.6102 25V17.86H64.0382V18.84H64.1222C64.3275 18.4947 64.6309 18.21 65.0322 17.986C65.4429 17.7527 65.8909 17.636 66.3762 17.636C67.2535 17.636 67.9115 17.8973 68.3502 18.42C68.7889 18.9333 69.0082 19.624 69.0082 20.492V25H67.5102V20.688C67.5102 20.1093 67.3655 19.6893 67.0762 19.428C66.7869 19.1573 66.4089 19.022 65.9422 19.022C65.5782 19.022 65.2609 19.1247 64.9902 19.33C64.7195 19.526 64.5049 19.7873 64.3462 20.114C64.1969 20.4407 64.1222 20.7907 64.1222 21.164V25H62.6102ZM73.9715 25V17.86H75.4835V25H73.9715ZM74.7275 16.81C74.4475 16.81 74.2048 16.712 73.9995 16.516C73.8035 16.3107 73.7055 16.068 73.7055 15.788C73.7055 15.4987 73.8035 15.2607 73.9995 15.074C74.2048 14.878 74.4475 14.78 74.7275 14.78C75.0168 14.78 75.2595 14.878 75.4555 15.074C75.6515 15.2607 75.7495 15.4987 75.7495 15.788C75.7495 16.068 75.6515 16.3107 75.4555 16.516C75.2595 16.712 75.0168 16.81 74.7275 16.81ZM77.2391 25V17.86H78.6671V18.84H78.7511C78.9564 18.4947 79.2598 18.21 79.6611 17.986C80.0718 17.7527 80.5198 17.636 81.0051 17.636C81.8824 17.636 82.5404 17.8973 82.9791 18.42C83.4178 18.9333 83.6371 19.624 83.6371 20.492V25H82.1391V20.688C82.1391 20.1093 81.9944 19.6893 81.7051 19.428C81.4158 19.1573 81.0378 19.022 80.5711 19.022C80.2071 19.022 79.8898 19.1247 79.6191 19.33C79.3484 19.526 79.1338 19.7873 78.9751 20.114C78.8258 20.4407 78.7511 20.7907 78.7511 21.164V25H77.2391ZM90.0984 25L87.8164 17.86H89.4544L90.9244 22.998H90.9804L92.5904 17.86H94.1444L95.7544 22.998H95.8104L97.2804 17.86H98.8904L96.5944 25H95.0124L93.3604 19.834H93.3044L91.6664 25H90.0984ZM99.8387 25V17.86H101.351V25H99.8387ZM100.595 16.81C100.315 16.81 100.072 16.712 99.8667 16.516C99.6707 16.3107 99.5727 16.068 99.5727 15.788C99.5727 15.4987 99.6707 15.2607 99.8667 15.074C100.072 14.878 100.315 14.78 100.595 14.78C100.884 14.78 101.127 14.878 101.323 15.074C101.519 15.2607 101.617 15.4987 101.617 15.788C101.617 16.068 101.519 16.3107 101.323 16.516C101.127 16.712 100.884 16.81 100.595 16.81ZM102.588 19.176V17.86H103.848V15.844H105.346V17.86H107.096V19.176H105.346V22.606C105.346 22.9793 105.421 23.2547 105.57 23.432C105.729 23.6093 105.967 23.698 106.284 23.698C106.434 23.698 106.574 23.6793 106.704 23.642C106.835 23.5953 106.98 23.5253 107.138 23.432V24.902C106.961 24.9673 106.779 25.0187 106.592 25.056C106.415 25.0933 106.224 25.112 106.018 25.112C105.346 25.112 104.814 24.916 104.422 24.524C104.04 24.132 103.848 23.6 103.848 22.928V19.176H102.588ZM108.548 25V14.976H110.06V17.72L109.976 18.84H110.06C110.256 18.4947 110.554 18.21 110.956 17.986C111.366 17.7527 111.819 17.636 112.314 17.636C112.911 17.636 113.406 17.7573 113.798 18C114.199 18.2427 114.498 18.5787 114.694 19.008C114.89 19.428 114.988 19.9227 114.988 20.492V25H113.49V20.688C113.49 20.3053 113.415 19.9927 113.266 19.75C113.126 19.5073 112.939 19.3253 112.706 19.204C112.472 19.0827 112.211 19.022 111.922 19.022C111.558 19.022 111.236 19.1247 110.956 19.33C110.676 19.5353 110.456 19.806 110.298 20.142C110.139 20.4687 110.06 20.8187 110.06 21.192V25H108.548ZM124.948 25.224C124.229 25.224 123.553 25.0933 122.918 24.832C122.283 24.5707 121.723 24.2067 121.238 23.74C120.762 23.264 120.384 22.7087 120.104 22.074C119.833 21.43 119.698 20.7347 119.698 19.988C119.698 19.2413 119.833 18.5507 120.104 17.916C120.384 17.272 120.762 16.7167 121.238 16.25C121.723 15.774 122.283 15.4053 122.918 15.144C123.553 14.8827 124.229 14.752 124.948 14.752C125.713 14.752 126.418 14.8873 127.062 15.158C127.715 15.4287 128.261 15.8067 128.7 16.292L127.636 17.342C127.421 17.0993 127.174 16.894 126.894 16.726C126.623 16.558 126.325 16.432 125.998 16.348C125.671 16.2547 125.321 16.208 124.948 16.208C124.453 16.208 123.982 16.2967 123.534 16.474C123.086 16.6513 122.689 16.908 122.344 17.244C122.008 17.5707 121.742 17.9673 121.546 18.434C121.35 18.8913 121.252 19.4093 121.252 19.988C121.252 20.5667 121.35 21.0893 121.546 21.556C121.751 22.0133 122.022 22.41 122.358 22.746C122.703 23.0727 123.1 23.3247 123.548 23.502C123.996 23.6793 124.467 23.768 124.962 23.768C125.419 23.768 125.844 23.7027 126.236 23.572C126.637 23.4413 126.987 23.2547 127.286 23.012C127.585 22.7693 127.827 22.4753 128.014 22.13C128.201 21.7753 128.317 21.3787 128.364 20.94H124.934V19.582H129.806C129.825 19.694 129.843 19.8247 129.862 19.974C129.881 20.114 129.89 20.2493 129.89 20.38V20.394C129.89 21.1127 129.764 21.7707 129.512 22.368C129.269 22.9653 128.929 23.4787 128.49 23.908C128.051 24.328 127.529 24.6547 126.922 24.888C126.325 25.112 125.667 25.224 124.948 25.224ZM134.849 25.224C134.112 25.224 133.463 25.056 132.903 24.72C132.343 24.384 131.904 23.9313 131.587 23.362C131.27 22.7833 131.111 22.1393 131.111 21.43C131.111 20.7207 131.27 20.0813 131.587 19.512C131.904 18.9333 132.343 18.476 132.903 18.14C133.463 17.804 134.112 17.636 134.849 17.636C135.577 17.636 136.221 17.8087 136.781 18.154C137.341 18.49 137.78 18.9427 138.097 19.512C138.414 20.0813 138.573 20.7207 138.573 21.43C138.573 22.1393 138.414 22.7833 138.097 23.362C137.78 23.9313 137.341 24.384 136.781 24.72C136.221 25.056 135.577 25.224 134.849 25.224ZM134.849 23.838C135.241 23.838 135.605 23.7447 135.941 23.558C136.277 23.362 136.548 23.0867 136.753 22.732C136.968 22.368 137.075 21.934 137.075 21.43C137.075 20.926 136.968 20.4967 136.753 20.142C136.548 19.778 136.277 19.5027 135.941 19.316C135.605 19.12 135.241 19.022 134.849 19.022C134.457 19.022 134.088 19.12 133.743 19.316C133.407 19.5027 133.132 19.778 132.917 20.142C132.712 20.4967 132.609 20.926 132.609 21.43C132.609 21.934 132.712 22.368 132.917 22.732C133.132 23.0867 133.412 23.362 133.757 23.558C134.102 23.7447 134.466 23.838 134.849 23.838ZM143.285 25.224C142.547 25.224 141.899 25.056 141.339 24.72C140.779 24.384 140.34 23.9313 140.023 23.362C139.705 22.7833 139.547 22.1393 139.547 21.43C139.547 20.7207 139.705 20.0813 140.023 19.512C140.34 18.9333 140.779 18.476 141.339 18.14C141.899 17.804 142.547 17.636 143.285 17.636C144.013 17.636 144.657 17.8087 145.217 18.154C145.777 18.49 146.215 18.9427 146.533 19.512C146.85 20.0813 147.009 20.7207 147.009 21.43C147.009 22.1393 146.85 22.7833 146.533 23.362C146.215 23.9313 145.777 24.384 145.217 24.72C144.657 25.056 144.013 25.224 143.285 25.224ZM143.285 23.838C143.677 23.838 144.041 23.7447 144.377 23.558C144.713 23.362 144.983 23.0867 145.189 22.732C145.403 22.368 145.511 21.934 145.511 21.43C145.511 20.926 145.403 20.4967 145.189 20.142C144.983 19.778 144.713 19.5027 144.377 19.316C144.041 19.12 143.677 19.022 143.285 19.022C142.893 19.022 142.524 19.12 142.179 19.316C141.843 19.5027 141.567 19.778 141.353 20.142C141.147 20.4967 141.045 20.926 141.045 21.43C141.045 21.934 141.147 22.368 141.353 22.732C141.567 23.0867 141.847 23.362 142.193 23.558C142.538 23.7447 142.902 23.838 143.285 23.838ZM151.58 28.248C150.955 28.248 150.414 28.1453 149.956 27.94C149.508 27.744 149.144 27.4873 148.864 27.17C148.584 26.862 148.384 26.5447 148.262 26.218L149.662 25.63C149.812 26.0033 150.05 26.3067 150.376 26.54C150.712 26.7827 151.114 26.904 151.58 26.904C152.243 26.904 152.761 26.708 153.134 26.316C153.508 25.924 153.694 25.3687 153.694 24.65V23.964H153.61C153.386 24.2907 153.078 24.5567 152.686 24.762C152.294 24.9673 151.842 25.07 151.328 25.07C150.722 25.07 150.162 24.916 149.648 24.608C149.144 24.3 148.738 23.8707 148.43 23.32C148.132 22.76 147.982 22.1067 147.982 21.36C147.982 20.604 148.132 19.9507 148.43 19.4C148.738 18.84 149.144 18.406 149.648 18.098C150.162 17.79 150.722 17.636 151.328 17.636C151.842 17.636 152.294 17.7387 152.686 17.944C153.078 18.14 153.386 18.4107 153.61 18.756H153.694V17.86H155.136V24.622C155.136 25.3967 154.982 26.0547 154.674 26.596C154.376 27.1373 153.96 27.548 153.428 27.828C152.896 28.108 152.28 28.248 151.58 28.248ZM151.594 23.698C151.968 23.698 152.313 23.6093 152.63 23.432C152.957 23.2453 153.214 22.9793 153.4 22.634C153.596 22.2793 153.694 21.8547 153.694 21.36C153.694 20.8373 153.596 20.4033 153.4 20.058C153.214 19.7127 152.957 19.4513 152.63 19.274C152.313 19.0967 151.968 19.008 151.594 19.008C151.221 19.008 150.871 19.0967 150.544 19.274C150.227 19.4513 149.97 19.7173 149.774 20.072C149.578 20.4173 149.48 20.8467 149.48 21.36C149.48 21.864 149.578 22.2933 149.774 22.648C149.97 22.9933 150.227 23.2547 150.544 23.432C150.871 23.6093 151.221 23.698 151.594 23.698ZM156.878 25V14.976H158.39V25H156.878ZM163.407 25.224C162.707 25.224 162.082 25.0607 161.531 24.734C160.981 24.4073 160.547 23.9593 160.229 23.39C159.921 22.8207 159.767 22.172 159.767 21.444C159.767 20.7627 159.917 20.1327 160.215 19.554C160.514 18.9753 160.929 18.5133 161.461 18.168C162.003 17.8133 162.623 17.636 163.323 17.636C164.061 17.636 164.686 17.7947 165.199 18.112C165.722 18.4293 166.119 18.8633 166.389 19.414C166.66 19.9647 166.795 20.5853 166.795 21.276C166.795 21.3787 166.791 21.472 166.781 21.556C166.781 21.64 166.777 21.7053 166.767 21.752H161.251C161.289 22.144 161.387 22.4847 161.545 22.774C161.751 23.138 162.021 23.4133 162.357 23.6C162.693 23.7867 163.057 23.88 163.449 23.88C163.925 23.88 164.322 23.7727 164.639 23.558C164.966 23.334 165.223 23.0587 165.409 22.732L166.655 23.334C166.347 23.894 165.927 24.3513 165.395 24.706C164.863 25.0513 164.201 25.224 163.407 25.224ZM161.335 20.618H165.297C165.288 20.4407 165.241 20.254 165.157 20.058C165.073 19.8527 164.952 19.666 164.793 19.498C164.635 19.33 164.434 19.1947 164.191 19.092C163.949 18.98 163.664 18.924 163.337 18.924C162.927 18.924 162.563 19.0313 162.245 19.246C161.928 19.4513 161.681 19.7407 161.503 20.114C161.429 20.2727 161.373 20.4407 161.335 20.618Z" fill="#1F1F1F"/>
<defs>
<filter id="filter0_f_1298_12396" x="7.25922" y="4.90668" width="29.7381" height="29.772" filterUnits="userSpaceOnUse" color-interpolation-filters="sRGB">
<feFlood flood-opacity="0" result="BackgroundImageFix"/>
<feBlend mode="normal" in="SourceGraphic" in2="BackgroundImageFix" result="shape"/>
<feGaussianBlur stdDeviation="1" result="effect1_foregroundBlur_1298_12396"/>
</filter>
<clipPath id="paint0_angular_1298_12396_clip_path"><path d="M9.25923 19.7927C9.25923 12.6759 15.0209 6.90668 22.1283 6.90668C29.2357 6.90668 34.9973 12.6759 34.9973 19.7927C34.9973 26.9094 29.2357 32.6786 22.1283 32.6786C15.0209 32.6786 9.25923 26.9094 9.25923 19.7927Z"/></clipPath><filter id="filter1_f_1298_12396" x="14.9977" y="14.828" width="14.1037" height="10.8265" filterUnits="userSpaceOnUse" color-interpolation-filters="sRGB">
<feFlood flood-opacity="0" result="BackgroundImageFix"/>
<feBlend mode="normal" in="SourceGraphic" in2="BackgroundImageFix" result="shape"/>
<feGaussianBlur stdDeviation="1" result="effect1_foregroundBlur_1298_12396"/>
</filter>
<filter id="filter2_f_1298_12396" x="25.9146" y="13.1219" width="18.8784" height="10.1871" filterUnits="userSpaceOnUse" color-interpolation-filters="sRGB">
<feFlood flood-opacity="0" result="BackgroundImageFix"/>
<feBlend mode="normal" in="SourceGraphic" in2="BackgroundImageFix" result="shape"/>
<feGaussianBlur stdDeviation="1" result="effect1_foregroundBlur_1298_12396"/>
</filter>
<filter id="filter3_f_1298_12396" x="17.8658" y="11.8415" width="18.8171" height="8.7561" filterUnits="userSpaceOnUse" color-interpolation-filters="sRGB">
<feFlood flood-opacity="0" result="BackgroundImageFix"/>
<feBlend mode="normal" in="SourceGraphic" in2="BackgroundImageFix" result="shape"/>
<feGaussianBlur stdDeviation="1" result="effect1_foregroundBlur_1298_12396"/>
</filter>
<filter id="filter4_f_1298_12396" x="22.1342" y="8.54878" width="18.8171" height="8.7561" filterUnits="userSpaceOnUse" color-interpolation-filters="sRGB">
<feFlood flood-opacity="0" result="BackgroundImageFix"/>
<feBlend mode="normal" in="SourceGraphic" in2="BackgroundImageFix" result="shape"/>
<feGaussianBlur stdDeviation="1" result="effect1_foregroundBlur_1298_12396"/>
</filter>
<filter id="filter5_f_1298_12396" x="15.9756" y="14.7683" width="21.0122" height="10.2195" filterUnits="userSpaceOnUse" color-interpolation-filters="sRGB">
<feFlood flood-opacity="0" result="BackgroundImageFix"/>
<feBlend mode="normal" in="SourceGraphic" in2="BackgroundImageFix" result="shape"/>
<feGaussianBlur stdDeviation="1" result="effect1_foregroundBlur_1298_12396"/>
</filter>
<filter id="filter6_f_1298_12396" x="21.0403" y="9.00419" width="12.2878" height="10.0309" filterUnits="userSpaceOnUse" color-interpolation-filters="sRGB">
<feFlood flood-opacity="0" result="BackgroundImageFix"/>
<feBlend mode="normal" in="SourceGraphic" in2="BackgroundImageFix" result="shape"/>
<feGaussianBlur stdDeviation="1" result="effect1_foregroundBlur_1298_12396"/>
</filter>
</defs>
</svg>
