<svg width="24" height="24" xmlns="http://www.w3.org/2000/svg" xmlns:svg="http://www.w3.org/2000/svg">
 <title>GitHub icon</title>
 <g>
  <title>Layer 1</title>
  <path d="m12,0.297c-6.63,0 -12,5.373 -12,12c0,5.303 3.438,9.8 8.205,11.385c0.6,0.113 0.82,-0.258 0.82,-0.577c0,-0.285 -0.01,-1.04 -0.015,-2.04c-3.338,0.724 -4.042,-1.61 -4.042,-1.61c-0.546,-1.385 -1.335,-1.755 -1.335,-1.755c-1.087,-0.744 0.084,-0.729 0.084,-0.729c1.205,0.084 1.838,1.236 1.838,1.236c1.07,1.835 2.809,1.305 3.495,0.998c0.108,-0.776 0.417,-1.305 0.76,-1.605c-2.665,-0.3 -5.466,-1.332 -5.466,-5.93c0,-1.31 0.465,-2.38 1.235,-3.22c-0.135,-0.303 -0.54,-1.523 0.105,-3.176c0,0 1.005,-0.322 3.3,1.23c0.96,-0.267 1.98,-0.399 3,-0.405c1.02,0.006 2.04,0.138 3,0.405c2.28,-1.552 3.285,-1.23 3.285,-1.23c0.645,1.653 0.24,2.873 0.12,3.176c0.765,0.84 1.23,1.91 1.23,3.22c0,4.61 -2.805,5.625 -5.475,5.92c0.42,0.36 0.81,1.096 0.81,2.22c0,1.606 -0.015,2.896 -0.015,3.286c0,0.315 0.21,0.69 0.825,0.57c4.801,-1.574 8.236,-6.074 8.236,-11.369c0,-6.627 -5.373,-12 -12,-12" id="svg_1" fill="#888888"/>
 </g>
</svg>