<?xml version="1.0" encoding="utf-8"?><!DOCTYPE svg><svg xmlns="http://www.w3.org/2000/svg" enable-background="new -249.5 -199.5 500 500" viewBox="-249.5 -199.5 500 500"><rect x="-175" y="-200" fill="#E6E7E8" width="350" height="500"/><polygon fill="#fff" stroke="#000" points="-64,69 65,69 85,50 65,31 -64,31 -84,50"/><polygon fill="#fff" stroke="#000" points="-64,-99 65,-99 85,-118 65,-137 -64,-137 -84,-118"/><polygon fill="#fff" stroke="#000" points="-64,238 65,238 85,219 65,200 -64,200 -84,219"/><polygon fill="#fff" stroke="#000" points="-103,69 -103,200 -84,219 -64,200 -64,69 -84,50"/><polygon fill="#fff" stroke="#000" points="65,69 65,200 85,219 104,200 104,69 85,50"/><polygon fill="#fff" stroke="#000" points="-103,-99 -103,31 -84,50 -64,31 -64,-99 -84,-118"/><polygon fill="#fff" stroke="#000" points="65,-99 65,31 85,50 104,31 104,-99 85,-118"/></svg>
