<svg width="24" height="24" xmlns="http://www.w3.org/2000/svg">

 <g>
  <title>background</title>
  <rect fill="none" id="canvas_background" height="402" width="582" y="-1" x="-1"/>
 </g>
 <g>
  <title>Layer 1</title>
  <path d="m0,0l24,0l0,24l-24,0l0,-24z" fill="none" id="svg_1"/>
  <path d="m16.37929,7.95506l-0.93546,0c0.01432,-0.50214 0.02657,-0.52023 0.03986,-1.7c0.12465,-1.51787 1.2865,-3.19966 3.05482,-3.15576c1.76831,0.0439 2.81437,1.31814 2.88414,2.99083c0.06977,1.67269 0.01705,2.10751 0.02557,3.19354l2.06879,0.00944c0.00206,-1.04892 0.00412,-2.09785 0.00618,-3.14677c0.04494,-1.67278 -1.06197,-5.0547 -5.02196,-5.04494c-3.95999,0.00976 -5.40916,3.15685 -5.40916,5.05366c0,1.89681 0,1.25143 0,1.8l-8.71278,0c-1.1,0 -2,0.9 -2,2l0,10c0,1.1 0.9,2 2,2l12,0c1.1,0 2,-0.9 2,-2l0,-10c0,-1.1 -0.9,-2 -2,-2zm-6,9c-1.1,0 -2,-0.9 -2,-2s0.9,-2 2,-2s2,0.9 2,2s-0.9,2 -2,2z" fill="#888" id="svg_2"/>
 </g>
</svg>