<?xml version="1.0" encoding="utf-8"?>
<!-- Generator: Adobe Illustrator 22.0.1, SVG Export Plug-In . SVG Version: 6.00 Build 0)  -->
<svg version="1.1" id="Layer_1" xmlns="http://www.w3.org/2000/svg" xmlns:xlink="http://www.w3.org/1999/xlink" x="0px" y="0px"
	 viewBox="0 0 360 50" style="enable-background:new 0 0 360 50;" xml:space="preserve">
<style type="text/css">
	.st0{display:none;}
	.st1{display:inline;fill:#222222;}
	.st2{fill:#888888;}
	.st3{fill:#CC5E5E;}
</style>
<g id="Layer_3" class="st0">
</g>
<g id="Layer_1_1_">
	<g>
		<path class="st2" d="M30.1,5.8c0.5,0.4,1,0.9,1.4,1.4c3.3,3.5,5,7.8,5,13c0,5.3-1.7,9.8-5.1,13.3c-3.4,3.5-7.5,5.3-12.2,5.3
			c-4.8,0-8.9-1.7-12.2-5.2c-3.3-3.4-4.9-7.9-4.9-13.4C2.1,14.6,4,10,7.8,6.5c3.3-3.1,7.3-4.6,11.9-4.6c0.9,0,1.7,0.1,2.5,0.2
			L21.5,4c-0.8-0.1-1.5-0.2-2.4-0.2c-3.1,0-5.7,1.2-7.6,3.5C9.2,10.2,8,14.5,8,20.1c0,5.7,1.2,10.2,3.7,13.3
			c1.9,2.4,4.4,3.5,7.5,3.5c3.3,0,6-1.3,8.2-3.9c2.2-2.6,3.2-6.6,3.2-12.2c0-6-1.2-10.5-3.6-13.5L30.1,5.8z"/>
		<path class="st2" d="M51.3,37c0.3,0.1,0.7,0.1,1.1,0.1c1.7,0,3.1-0.7,4.2-2c1.4-1.8,2.1-4.2,2.1-7.4c0-3.6-0.8-6.4-2.4-8.4
			c-1.1-1.3-2.4-2-3.9-2c-0.8,0-1.7,0.2-2.5,0.6c-0.6,0.3-1.7,1.2-3.1,2.8v8.9c0,1.9,0.1,3.1,0.1,3.7l-0.1,3.3v7.2
			c0,1.6,0.1,2.7,0.3,3.1c0.2,0.4,0.5,0.8,1,1.1s1.4,0.4,2.7,0.4v1H38.4v-1H39c1,0,1.8-0.2,2.4-0.5c0.3-0.2,0.6-0.5,0.8-0.9
			c0.2-0.4,0.3-1.5,0.3-3.2V21.1c0-1.5-0.1-2.5-0.2-2.9c-0.1-0.4-0.4-0.7-0.7-0.9c-0.3-0.2-0.7-0.3-1.2-0.3c-0.4,0-0.9,0.1-1.6,0.4
			l-0.3-0.8l7.3-3h1v5.6c1.2-2.1,2.5-3.6,3.7-4.4c1.2-0.8,2.5-1.3,3.9-1.3c2.4,0,4.4,0.9,6,2.8c2,2.3,2.9,5.3,2.9,8.9
			c0,4.1-1.2,7.5-3.5,10.2c-1.9,2.2-4.4,3.3-7.3,3.3c-0.5,0-0.9,0-1.3-0.1L51.3,37z"/>
		<path class="st2" d="M70.8,23.1c0,3.5,0.8,6.3,2.6,8.3c1.7,2,3.8,3,6.1,3c1.6,0,2.9-0.4,4.1-1.3c1.1-0.9,2.1-2.3,2.9-4.4l0.8,0.5
			c-0.4,2.4-1.4,4.5-3.2,6.5c-1.7,1.9-3.9,2.9-6.6,2.9c-2.9,0-5.3-1.1-7.3-3.3c-2-2.2-3-5.2-3-9c0-4.1,1-7.2,3.1-9.5
			s4.7-3.4,7.8-3.4c2.7,0,4.8,0.9,6.6,2.6s2.6,4.1,2.6,7l-12.2,0l-0.1-1.5l6.9,0c-0.1-1.5-0.3-2.6-0.5-3.2c-0.4-1-1.1-1.7-1.9-2.3
			c-0.9-0.6-1.8-0.8-2.7-0.8c-1.4,0-2.7,0.6-3.9,1.7s-1.8,2.7-2,4.7"/>
		<path class="st2" d="M97.3,18.5c2.8-3.4,5.4-5,8-5c1.3,0,2.4,0.3,3.3,1c0.9,0.6,1.7,1.7,2.2,3.2c0.4,1,0.6,2.6,0.6,4.8v10.1
			c0,1.5,0.1,2.5,0.4,3.1c0.2,0.4,0.5,0.8,0.9,1c0.4,0.2,1.2,0.4,2.3,0.4v0.9h-11.7V37h0.5c1.1,0,1.9-0.2,2.3-0.5
			c0.4-0.3,0.7-0.8,0.9-1.5c0.1-0.3,0.1-1.1,0.1-2.4v-9.7c0-2.2-0.3-3.7-0.8-4.7c-0.6-1-1.5-1.5-2.8-1.5c-2.1,0-4.1,1.1-6.1,3.4
			v12.5c0,1.6,0.1,2.6,0.3,3c0.2,0.5,0.6,0.9,1,1.1c0.4,0.2,1.3,0.3,2.6,0.3v0.9H89.4V37h0.5c1.2,0,2-0.3,2.5-0.9
			c0.4-0.6,0.6-1.8,0.6-3.5v-8.8c0-2.9-0.1-4.6-0.2-5.2c-0.1-0.6-0.3-1-0.6-1.3c-0.3-0.2-0.6-0.3-1.1-0.3c-0.5,0-1.1,0.1-1.7,0.4
			L89,16.3l7.2-2.9h1.1C97.3,13.4,97.3,18.5,97.3,18.5z"/>
		<path class="st2" d="M147.2,1.9l0.8,12h-0.8c-1.1-3.6-2.6-6.2-4.6-7.7c-2-1.6-4.4-2.4-7.2-2.4c-2.3,0-4.4,0.6-6.3,1.8
			c-1.9,1.2-3.4,3.1-4.4,5.7c-1.1,2.6-1.6,5.8-1.6,9.7c0,3.2,0.5,5.9,1.5,8.3c1,2.3,2.6,4.1,4.6,5.4c2,1.2,4.4,1.9,7,1.9
			c2.3,0,4.3-0.5,6-1.5c1.7-1,3.7-2.9,5.8-5.8l0.8,0.5c-1.8,3.1-3.8,5.4-6.2,6.9c-2.4,1.5-5.1,2.2-8.4,2.2c-5.8,0-10.3-2.2-13.5-6.5
			c-2.4-3.2-3.6-7-3.6-11.4c0-3.5,0.8-6.7,2.4-9.7c1.6-2.9,3.7-5.2,6.5-6.8c2.8-1.6,5.8-2.4,9-2.4c2.5,0,5,0.6,7.5,1.9
			c0.7,0.4,1.2,0.6,1.6,0.6c0.5,0,0.9-0.2,1.2-0.5c0.4-0.5,0.8-1.1,1-1.9C146.3,1.9,147.2,1.9,147.2,1.9z"/>
		<path class="st2" d="M160.5,13.4v19.1c0,1.5,0.1,2.5,0.3,3c0.2,0.5,0.5,0.9,1,1.1c0.4,0.2,1.2,0.4,2.3,0.4v0.9h-11.5V37
			c1.2,0,1.9-0.1,2.3-0.3s0.7-0.6,0.9-1.1c0.2-0.5,0.3-1.5,0.3-3v-9.2c0-2.6-0.1-4.2-0.2-5c-0.1-0.6-0.3-0.9-0.6-1.2
			s-0.6-0.3-1.1-0.3c-0.5,0-1.1,0.1-1.8,0.4l-0.4-0.9l7.2-2.9L160.5,13.4L160.5,13.4L160.5,13.4z M158.4,1c0.7,0,1.3,0.3,1.9,0.8
			c0.5,0.5,0.8,1.1,0.8,1.9s-0.3,1.3-0.8,1.9c-0.5,0.5-1.1,0.8-1.9,0.8c-0.7,0-1.3-0.3-1.9-0.8c-0.5-0.5-0.8-1.1-0.8-1.9
			s0.3-1.3,0.8-1.9C157,1.3,157.6,1,158.4,1z"/>
		<path class="st2" d="M174,13.4v5.3c2-3.6,4-5.3,6.1-5.3c0.9,0,1.7,0.3,2.4,0.9s0.9,1.2,0.9,2c0,0.7-0.2,1.2-0.7,1.7
			c-0.4,0.5-1,0.7-1.6,0.7c-0.6,0-1.3-0.3-2-0.9c-0.8-0.6-1.3-0.9-1.7-0.9c-0.3,0-0.6,0.2-1,0.5c-0.8,0.7-1.6,1.9-2.4,3.5v11.4
			c0,1.3,0.2,2.3,0.5,3c0.2,0.5,0.6,0.9,1.2,1.2c0.6,0.3,1.4,0.5,2.5,0.5v0.9H166V37c1.2,0,2.1-0.2,2.7-0.6c0.4-0.3,0.7-0.7,0.9-1.3
			c0.1-0.3,0.1-1.1,0.1-2.5v-9.2c0-2.8-0.1-4.4-0.2-4.9c-0.1-0.5-0.3-0.9-0.6-1.2s-0.7-0.4-1.1-0.4c-0.5,0-1.1,0.1-1.8,0.4l-0.3-0.9
			l7.2-2.9L174,13.4L174,13.4L174,13.4z"/>
		<path class="st2" d="M205,28.9c-0.6,3.1-1.9,5.5-3.8,7.2c-1.9,1.7-3.9,2.5-6.2,2.5c-2.7,0-5-1.1-7.1-3.4c-2-2.3-3-5.3-3-9.2
			c0-3.7,1.1-6.8,3.3-9.1s4.9-3.5,8-3.5c2.3,0,4.3,0.6,5.8,1.9c1.5,1.2,2.3,2.5,2.3,3.9c0,0.7-0.2,1.2-0.6,1.6
			c-0.4,0.4-1,0.6-1.8,0.6c-1,0-1.8-0.3-2.3-1c-0.3-0.4-0.5-1.1-0.6-2.1c-0.1-1-0.4-1.8-1-2.3c-0.6-0.5-1.4-0.8-2.5-0.8
			c-1.7,0-3.1,0.6-4.2,1.9c-1.4,1.7-2.1,3.9-2.1,6.7c0,2.8,0.7,5.3,2.1,7.5c1.4,2.2,3.3,3.3,5.6,3.3c1.7,0,3.2-0.6,4.6-1.7
			c0.9-0.8,1.9-2.2,2.8-4.3L205,28.9z"/>
		<path class="st2" d="M229.2,14.1v14.4c0,2.7,0.1,4.4,0.2,5c0.1,0.6,0.3,1,0.6,1.3c0.3,0.2,0.6,0.4,1,0.4c0.5,0,1.1-0.1,1.8-0.4
			l0.4,0.9l-7.1,2.9h-1.2v-5c-2,2.2-3.6,3.6-4.7,4.2c-1.1,0.6-2.2,0.9-3.4,0.9c-1.3,0-2.5-0.4-3.5-1.2c-1-0.8-1.7-1.8-2-3
			c-0.4-1.2-0.6-2.9-0.6-5.1V18.8c0-1.1-0.1-1.9-0.4-2.3c-0.2-0.4-0.6-0.8-1.1-1c-0.5-0.2-1.3-0.3-2.6-0.3v-1h8.3V30
			c0,2.2,0.4,3.7,1.2,4.4c0.8,0.7,1.7,1,2.8,1c0.7,0,1.6-0.2,2.5-0.7c0.9-0.5,2.1-1.4,3.4-2.7V18.6c0-1.3-0.2-2.3-0.7-2.7
			s-1.5-0.7-3.1-0.8v-1L229.2,14.1L229.2,14.1L229.2,14.1z"/>
		<path class="st2" d="M243.1,13.4v19.1c0,1.5,0.1,2.5,0.3,3c0.2,0.5,0.5,0.9,1,1.1c0.4,0.2,1.2,0.4,2.3,0.4v0.9h-11.5V37
			c1.2,0,1.9-0.1,2.3-0.3s0.7-0.6,0.9-1.1c0.2-0.5,0.3-1.5,0.3-3v-9.2c0-2.6-0.1-4.2-0.2-5c-0.1-0.6-0.3-0.9-0.6-1.2
			s-0.6-0.3-1.1-0.3c-0.5,0-1.1,0.1-1.8,0.4l-0.4-0.9l7.2-2.9L243.1,13.4L243.1,13.4L243.1,13.4z M240.9,1c0.7,0,1.3,0.3,1.9,0.8
			c0.5,0.5,0.8,1.1,0.8,1.9s-0.3,1.3-0.8,1.9c-0.5,0.5-1.1,0.8-1.9,0.8c-0.7,0-1.3-0.3-1.9-0.8c-0.5-0.5-0.8-1.1-0.8-1.9
			s0.3-1.3,0.8-1.9C239.6,1.3,240.2,1,240.9,1z"/>
		<path class="st2" d="M256.6,6.3v7.8h5.5V16h-5.5v15.4c0,1.5,0.2,2.6,0.7,3.1c0.4,0.5,1,0.8,1.7,0.8c0.6,0,1.1-0.2,1.7-0.5
			c0.5-0.4,1-0.9,1.2-1.6h1c-0.6,1.7-1.5,3-2.6,3.8c-1.1,0.9-2.2,1.3-3.4,1.3c-0.8,0-1.6-0.2-2.3-0.7c-0.8-0.4-1.3-1.1-1.7-1.9
			c-0.4-0.8-0.5-2.1-0.5-3.8V16h-3.8v-0.9c1-0.4,1.9-1,2.9-1.9c1-0.9,1.9-2,2.7-3.2c0.4-0.7,0.9-1.9,1.7-3.6
			C255.8,6.3,256.6,6.3,256.6,6.3z"/>
		<path class="st2" d="M279.8,13.4v8.1h-0.9c-0.7-2.5-1.5-4.3-2.5-5.2c-1-0.9-2.3-1.4-3.9-1.4c-1.2,0-2.2,0.3-2.9,1
			c-0.7,0.6-1.1,1.3-1.1,2.1c0,1,0.3,1.8,0.8,2.5c0.5,0.7,1.6,1.5,3.3,2.3l3.8,1.8c3.5,1.7,5.3,4,5.3,6.8c0,2.2-0.8,3.9-2.5,5.2
			c-1.6,1.3-3.5,2-5.5,2c-1.5,0-3.1-0.3-5-0.8c-0.6-0.2-1-0.3-1.4-0.3c-0.4,0-0.7,0.2-0.9,0.7h-0.9v-8.5h0.9
			c0.5,2.4,1.4,4.2,2.8,5.5s2.9,1.8,4.6,1.8c1.2,0,2.2-0.4,2.9-1.1c0.8-0.7,1.1-1.5,1.1-2.5c0-1.2-0.4-2.2-1.3-3s-2.5-1.8-5-3.1
			c-2.5-1.2-4.1-2.4-4.9-3.4c-0.8-1-1.2-2.2-1.2-3.7c0-2,0.7-3.6,2-4.9c1.3-1.3,3.1-2,5.2-2c0.9,0,2.1,0.2,3.4,0.6
			c0.9,0.3,1.5,0.4,1.8,0.4c0.3,0,0.5-0.1,0.6-0.2c0.2-0.1,0.3-0.4,0.5-0.8C278.9,13.4,279.8,13.4,279.8,13.4z"/>
	</g>
	<g>
		<path class="st3" d="M293.2,37.9l7-32.5h26.9l-0.9,4.2h-22.4l-2,9.4h19.8l-0.9,4.2H301l-2.3,10.7h22.6l-0.9,4.2H293.2z"/>
		<path class="st3" d="M323.1,37.9l7-32.5H357l-0.9,4.2h-22.4l-2,9.4h19.8l-0.9,4.2h-19.8l-2.3,10.7h22.6l-0.9,4.2H323.1z"/>
	</g>
</g>
<g id="Layer_2_1_">
</g>
</svg>
