<?xml version="1.0" ?><!DOCTYPE svg  PUBLIC '-//W3C//DTD SVG 1.1//EN'  'http://www.w3.org/Graphics/SVG/1.1/DTD/svg11.dtd'><svg enable-background="new 0 0 512 512" height="512px" version="1.1" viewBox="0 0 512 512" width="512px" xml:space="preserve" xmlns="http://www.w3.org/2000/svg" xmlns:xlink="http://www.w3.org/1999/xlink"><g id="Layer_6"><path d="M228,68.67c-68.48,0-124,55.51-124,124c0,68.48,55.52,124,124,124c68.48,0,124-55.52,124-124   C352,124.18,296.48,68.67,228,68.67z M228,283.27c-50.04,0-90.6-40.569-90.6-90.6c0-50.04,40.56-90.6,90.6-90.6   s90.6,40.56,90.6,90.6C318.6,242.7,278.04,283.27,228,283.27z" fill="#1A1A1A"/><g><path d="M392.791,414.308c6.094,9.157,4.118,21.283-4.391,26.944c-8.509,5.662-20.457,2.803-26.551-6.355    l-88.641-133.204c-6.094-9.158-4.118-21.283,4.391-26.944c8.51-5.662,20.458-2.803,26.552,6.355L392.791,414.308z" fill="#1A1A1A"/></g></g></svg>