<?xml version="1.0" encoding="utf-8"?>
<!-- Generator: Adobe Illustrator 18.0.0, SVG Export Plug-In . SVG Version: 6.00 Build 0)  -->
<!DOCTYPE svg PUBLIC "-//W3C//DTD SVG 1.1//EN" "http://www.w3.org/Graphics/SVG/1.1/DTD/svg11.dtd">
<svg version="1.1" id="Layer_1" xmlns="http://www.w3.org/2000/svg" xmlns:xlink="http://www.w3.org/1999/xlink" x="0px" y="0px"
	 viewBox="0 0 18 18" enable-background="new 0 0 18 18" xml:space="preserve">
<g>
	<defs>
		<rect id="SVGID_1_" width="18" height="18"/>
	</defs>
	<clipPath id="SVGID_2_">
		<use xlink:href="#SVGID_1_"  overflow="visible"/>
	</clipPath>
	<path clip-path="url(#SVGID_2_)" fill="#FFFFFF" d="M6.3,2.9C6.9,2.5,8,2.1,9,2.1c1.5,0,2.3,0.5,3,1.2c0.7,0.7,1,1.4,1,2.4
		c0,0.9-0.3,1.3-0.6,1.8c-0.2,0.3-0.6,0.6-1.1,1.1l-0.5,0.4c-0.3,0.3-0.5,0.5-0.6,0.8C10,10,10,10.3,10,10.7H8c0-1,0-1.4,0.1-1.8
		c0.1-0.4,0.5-0.7,1.1-1.2l0.6-0.4c0.2-0.1,0.5-0.4,0.6-0.6c0.2-0.3,0.3-0.7,0.4-1c0-0.3-0.1-0.7-0.3-1C10,4.2,9.6,4,8.9,4
		C8.3,4,7.8,4.3,7.5,4.6C7.2,5,7.1,5.5,7,6h-2C5.1,4.5,5.4,3.7,6.3,2.9"/>
	<path clip-path="url(#SVGID_2_)" fill="none" stroke="#FFFFFF" stroke-width="2" d="M6.3,2.9C6.9,2.5,8,2.1,9,2.1
		c1.5,0,2.3,0.5,3,1.2c0.7,0.7,1,1.4,1,2.4c0,0.9-0.3,1.3-0.6,1.8c-0.2,0.3-0.6,0.6-1.1,1.1l-0.5,0.4c-0.3,0.3-0.5,0.5-0.6,0.8
		C10,10,10,10.3,10,10.7H8c0-1,0-1.4,0.1-1.8c0.1-0.4,0.5-0.7,1.1-1.2l0.6-0.4c0.2-0.1,0.5-0.4,0.6-0.6c0.2-0.3,0.3-0.7,0.4-1
		c0-0.3-0.1-0.7-0.3-1C10,4.2,9.6,4,8.9,4C8.3,4,7.8,4.3,7.5,4.6C7.2,5,7.1,5.5,7,6h-2C5.1,4.5,5.4,3.7,6.3,2.9z"/>
	<rect x="7.8" y="11.9" clip-path="url(#SVGID_2_)" fill="#FFFFFF" width="2.5" height="2.4"/>
	<rect x="7.8" y="11.9" clip-path="url(#SVGID_2_)" fill="none" stroke="#FFFFFF" stroke-width="1.5" width="2.5" height="2.4"/>
	<path clip-path="url(#SVGID_2_)" d="M6.5,2.9c0.7-0.4,1.3-0.8,2.4-0.8c1.6,0,2,0.2,2.8,0.9C12.5,3.6,13,4.4,13,5.5
		c0,0.7-0.4,1.4-0.7,1.9c-0.2,0.3-0.5,0.6-1,1l-0.6,0.5C10.3,9.1,10,9.4,9.9,9.7c-0.1,0.2-0.1,0.6-0.1,1H8c0-0.9,0-1.6,0.2-1.9
		c0.1-0.3,0.5-0.7,1-1.2l0.5-0.4c0.2-0.1,0.5-0.4,0.6-0.5c0.2-0.3,0.4-0.7,0.4-1c0-0.4,0-0.7-0.2-1C10.3,4.3,10,3.9,8.9,3.9
		C8,3.8,7.6,4.3,7.3,4.7C7.1,5.1,7,5.6,7,6H5C5.1,4.5,5.5,3.5,6.5,2.9"/>
	<rect x="8" y="12" clip-path="url(#SVGID_2_)" width="2" height="2"/>
</g>
</svg>
