<svg width="24" height="24" xmlns="http://www.w3.org/2000/svg">

  <path id="svg_1" fill="none" d="m0,0l24,0l0,24l-24,0l0,-24z"/>
  <path id="svg_2" fill="#888" d="m16.73884,7.95506l-1,0c0,0 0,0 0,0l0,-1.7c-0.089892,-2.644948 -1.575387,-5.226371 -5.200323,-5.182471c-3.624936,0.0439 -4.920559,2.687974 -5.050154,5.075162c-0.129595,2.387188 0.10693,4.419239 0.115451,5.505264c0.847471,-0.007608 1.605056,-0.06016 2.452527,-0.067768c0.00206,-1.048924 0.006184,-3.721183 0.051124,-5.259132c0.04494,-1.537949 0.825671,-2.807508 2.5286,-2.797748c1.702929,0.00976 2.528618,1.08175 2.483674,2.716581l-0.044944,1.744944l-8.335955,-0.034832c-1.1,0 -2,0.9 -2,2l0,10c0,1.1 0.9,2 2,2l12,0c1.1,0 2,-0.9 2,-2l0,-10c0,-1.1 -0.9,-2 -2,-2zm-6,9c-1.1,0 -2,-0.9 -2,-2s0.9,-2 2,-2s2,0.9 2,2s-0.9,2 -2,2z"/>

</svg>