<svg width="24" height="24" xmlns="http://www.w3.org/2000/svg">

  <path id="svg_1" fill="none" d="m0,0l24,0l0,24l-24,0l0,-24z"/>
  <path id="svg_2" fill="#4caf50" d="m16.37929,7.95506l-1,0c0,0 0,0 0,0l0,-1.7c0.04494,-2.19551 1.390904,-3.518505 3.159224,-3.474605c1.76831,0.0439 3.169325,1.24977 3.174561,3.277408c0.008521,1.086025 0.017042,2.172049 0.025563,3.258074l1.77837,-0.022824c0.002061,-1.048924 0.004121,-2.097849 0.006182,-3.146773c0.04494,-1.67278 -1.06197,-5.0547 -5.02196,-5.04494c-3.95999,0.00976 -5.02194,3.55366 -5.02194,5.05366l0,1.7c0,0.1 0,0.1 0,0.1l-9.1,0c-1.1,0 -2,0.9 -2,2l0,10c0,1.1 0.9,2 2,2l12,0c1.1,0 2,-0.9 2,-2l0,-10c0,-1.1 -0.9,-2 -2,-2zm-6,9c-1.1,0 -2,-0.9 -2,-2s0.9,-2 2,-2s2,0.9 2,2s-0.9,2 -2,2z"/>

</svg>