<?xml version="1.0" encoding="utf-8"?>
<!-- Generator: Adobe Illustrator 17.0.0, SVG Export Plug-In . SVG Version: 6.00 Build 0)  -->
<!DOCTYPE svg PUBLIC "-//W3C//DTD SVG 1.1//EN" "http://www.w3.org/Graphics/SVG/1.1/DTD/svg11.dtd">
<svg version="1.1" xmlns="http://www.w3.org/2000/svg" xmlns:xlink="http://www.w3.org/1999/xlink" x="0px" y="0px" width="360px"
	 height="50px" viewBox="0 0 360 50" enable-background="new 0 0 360 50" xml:space="preserve">
<g id="Layer_3" display="none">
	<rect display="inline" fill="#222222" width="360" height="50"/>
</g>
<g id="Layer_1">
	<g>
		<path fill="#888888" d="M30.051,5.765c0.494,0.418,0.976,0.871,1.446,1.358c3.345,3.467,5.018,7.793,5.018,12.979
			c0,5.343-1.686,9.777-5.057,13.305c-3.372,3.526-7.452,5.29-12.24,5.29c-4.841,0-8.909-1.719-12.202-5.161
			c-3.294-3.44-4.94-7.892-4.94-13.356c0-5.584,1.902-10.14,5.706-13.667c3.302-3.06,7.252-4.59,11.852-4.59
			c0.855,0,1.689,0.061,2.502,0.183l-0.6,1.934c-0.752-0.149-1.55-0.223-2.395-0.223c-3.147,0-5.671,1.167-7.573,3.501
			c-2.369,2.905-3.553,7.157-3.553,12.759c0,5.74,1.227,10.157,3.683,13.252c1.884,2.351,4.373,3.526,7.469,3.526
			c3.301,0,6.029-1.288,8.182-3.863c2.153-2.577,3.229-6.64,3.229-12.189c0-6.017-1.185-10.504-3.553-13.459L30.051,5.765z"/>
		<path fill="#888888" d="M51.309,36.985c0.342,0.052,0.701,0.078,1.077,0.078c1.728,0,3.129-0.673,4.201-2.022
			c1.401-1.765,2.101-4.245,2.101-7.443c0-3.63-0.796-6.423-2.386-8.377c-1.107-1.349-2.421-2.022-3.942-2.022
			c-0.83,0-1.651,0.207-2.463,0.622c-0.623,0.312-1.652,1.245-3.086,2.801v8.869c0,1.919,0.052,3.116,0.054,3.741l-0.054,3.288
			v7.235c0,1.626,0.099,2.659,0.298,3.099c0.199,0.442,0.544,0.791,1.037,1.051s1.388,0.389,2.685,0.389v0.96H38.382v-0.96h0.649
			c0.95,0.017,1.763-0.165,2.438-0.544c0.328-0.192,0.583-0.498,0.765-0.921c0.181-0.424,0.272-1.501,0.272-3.228V21.14
			c0-1.539-0.069-2.516-0.207-2.931c-0.138-0.415-0.359-0.726-0.662-0.933c-0.302-0.207-0.713-0.311-1.232-0.311
			c-0.415,0-0.943,0.121-1.582,0.363l-0.311-0.83l7.313-2.956h0.985v5.55c1.227-2.092,2.459-3.557,3.695-4.396
			c1.236-0.838,2.537-1.258,3.903-1.258c2.386,0,4.374,0.933,5.965,2.801c1.953,2.282,2.931,5.256,2.931,8.921
			c0,4.097-1.176,7.486-3.527,10.166c-1.936,2.195-4.374,3.292-7.313,3.292c-0.472,0-0.92-0.025-1.344-0.074L51.309,36.985z"/>
		<path fill="#888888" d="M70.772,23.086c-0.017,3.526,0.839,6.292,2.567,8.298c1.729,2.006,3.761,3.008,6.095,3.008
			c1.556,0,2.909-0.427,4.059-1.283c1.149-0.856,2.113-2.321,2.891-4.397l0.804,0.52c-0.363,2.368-1.418,4.525-3.164,6.469
			c-1.747,1.945-3.934,2.917-6.562,2.917c-2.852,0-5.295-1.11-7.326-3.332c-2.032-2.222-3.047-5.207-3.047-8.96
			c0-4.063,1.041-7.231,3.125-9.505s4.698-3.41,7.845-3.41c2.662,0,4.85,0.877,6.561,2.632s2.567,4.102,2.567,7.042l-12.22,0.008
			L74.9,21.589l6.869-0.008c-0.087-1.521-0.268-2.594-0.544-3.216c-0.432-0.968-1.076-1.729-1.932-2.282
			c-0.856-0.554-1.75-0.83-2.684-0.83c-1.435,0-2.719,0.557-3.852,1.672s-1.794,2.667-1.984,4.655"/>
		<path fill="#888888" d="M97.277,18.469c2.783-3.354,5.437-5.031,7.962-5.031c1.297,0,2.412,0.324,3.345,0.972
			c0.933,0.649,1.677,1.716,2.23,3.203c0.38,1.038,0.571,2.629,0.571,4.772v10.141c0,1.503,0.121,2.524,0.363,3.059
			c0.19,0.433,0.497,0.769,0.921,1.012c0.424,0.241,1.206,0.362,2.347,0.362v0.934h-11.748v-0.934h0.493
			c1.107,0,1.88-0.168,2.321-0.505c0.441-0.336,0.747-0.833,0.921-1.491c0.069-0.26,0.104-1.072,0.104-2.438v-9.726
			c0-2.16-0.281-3.73-0.843-4.706c-0.562-0.977-1.508-1.465-2.839-1.465c-2.058,0-4.106,1.124-6.147,3.371v12.527
			c0,1.607,0.094,2.602,0.285,2.981c0.242,0.503,0.574,0.869,0.998,1.103c0.424,0.233,1.284,0.349,2.58,0.349v0.934H89.393v-0.934
			h0.519c1.21,0,2.027-0.307,2.451-0.92c0.423-0.613,0.635-1.785,0.635-3.514v-8.818c0-2.853-0.065-4.591-0.194-5.213
			c-0.13-0.623-0.329-1.046-0.597-1.271c-0.268-0.224-0.627-0.337-1.076-0.337c-0.484,0-1.063,0.13-1.738,0.389l-0.389-0.933
			l7.158-2.905h1.115C97.277,13.437,97.277,18.469,97.277,18.469z"/>
		<path fill="#888888" d="M147.224,1.923l0.805,11.955h-0.805c-1.072-3.579-2.602-6.154-4.59-7.728
			c-1.988-1.573-4.374-2.36-7.157-2.36c-2.334,0-4.444,0.593-6.328,1.777c-1.885,1.185-3.367,3.073-4.447,5.667
			c-1.081,2.593-1.621,5.818-1.621,9.673c0,3.182,0.51,5.939,1.53,8.272c1.02,2.334,2.555,4.124,4.603,5.369
			c2.049,1.244,4.387,1.867,7.015,1.867c2.282,0,4.296-0.488,6.043-1.465c1.745-0.977,3.665-2.917,5.758-5.822l0.804,0.518
			c-1.763,3.129-3.822,5.42-6.172,6.873c-2.352,1.452-5.144,2.178-8.377,2.178c-5.826,0-10.339-2.161-13.537-6.484
			c-2.386-3.216-3.578-7.002-3.578-11.358c0-3.509,0.786-6.734,2.36-9.673c1.573-2.939,3.739-5.217,6.496-6.834
			c2.758-1.616,5.77-2.425,9.038-2.425c2.542,0,5.048,0.623,7.521,1.867c0.726,0.38,1.244,0.571,1.555,0.571
			c0.467,0,0.873-0.164,1.219-0.493c0.449-0.467,0.769-1.115,0.96-1.945C146.319,1.923,147.224,1.923,147.224,1.923z"/>
		<path fill="#888888" d="M160.53,13.438v19.088c0,1.486,0.106,2.476,0.324,2.969c0.216,0.493,0.535,0.86,0.96,1.103
			c0.423,0.241,1.197,0.362,2.321,0.362v0.934h-11.541V36.96c1.158,0,1.936-0.112,2.334-0.336s0.713-0.596,0.947-1.116
			c0.233-0.518,0.349-1.512,0.349-2.981V23.37c0-2.575-0.078-4.243-0.233-5.004c-0.122-0.554-0.311-0.938-0.571-1.154
			s-0.615-0.324-1.063-0.324c-0.484,0-1.072,0.13-1.763,0.389l-0.363-0.933l7.158-2.905h1.141V13.438z M158.376,1.016
			c0.727,0,1.344,0.256,1.854,0.765c0.511,0.51,0.765,1.128,0.765,1.854s-0.254,1.349-0.765,1.868
			c-0.51,0.518-1.127,0.778-1.854,0.778c-0.725,0-1.349-0.26-1.867-0.778c-0.518-0.519-0.778-1.141-0.778-1.868
			s0.256-1.344,0.765-1.854C157.006,1.271,157.633,1.016,158.376,1.016z"/>
		<path fill="#888888" d="M174.041,13.438v5.342c1.988-3.561,4.028-5.342,6.12-5.342c0.95,0,1.738,0.29,2.36,0.869
			s0.934,1.249,0.934,2.01c0,0.674-0.226,1.245-0.674,1.712c-0.45,0.466-0.985,0.7-1.609,0.7c-0.605,0-1.283-0.298-2.036-0.894
			c-0.752-0.597-1.309-0.895-1.672-0.895c-0.311,0-0.649,0.173-1.011,0.519c-0.778,0.709-1.583,1.876-2.412,3.501v11.385
			c0,1.313,0.163,2.308,0.493,2.983c0.224,0.466,0.622,0.855,1.193,1.167c0.571,0.311,1.391,0.466,2.463,0.466v0.934h-12.162v-0.934
			c1.21,0,2.11-0.189,2.697-0.569c0.432-0.277,0.734-0.718,0.907-1.323c0.087-0.294,0.131-1.133,0.131-2.516v-9.207
			c0-2.766-0.057-4.412-0.169-4.94c-0.112-0.527-0.321-0.911-0.623-1.153s-0.679-0.363-1.127-0.363c-0.537,0-1.141,0.13-1.816,0.389
			l-0.26-0.933l7.184-2.905h1.089V13.438z"/>
		<path fill="#888888" d="M204.953,28.868c-0.64,3.129-1.894,5.537-3.761,7.222c-1.867,1.687-3.933,2.528-6.198,2.528
			c-2.696,0-5.048-1.131-7.053-3.397c-2.006-2.264-3.008-5.324-3.008-9.18c0-3.734,1.11-6.769,3.332-9.103s4.888-3.501,8-3.501
			c2.335,0,4.253,0.618,5.758,1.854c1.503,1.237,2.256,2.52,2.256,3.852c0,0.657-0.212,1.189-0.636,1.595
			c-0.423,0.406-1.015,0.609-1.776,0.609c-1.021,0-1.789-0.328-2.308-0.985c-0.294-0.363-0.488-1.055-0.583-2.075
			c-0.095-1.02-0.444-1.798-1.049-2.334c-0.606-0.519-1.444-0.778-2.516-0.778c-1.729,0-3.122,0.64-4.175,1.919
			c-1.401,1.695-2.101,3.934-2.101,6.717c0,2.835,0.696,5.338,2.087,7.507c1.393,2.171,3.272,3.255,5.642,3.255
			c1.694,0,3.216-0.579,4.564-1.738c0.95-0.795,1.875-2.239,2.774-4.331L204.953,28.868z"/>
		<path fill="#888888" d="M229.175,14.138v14.393c0,2.749,0.064,4.429,0.194,5.044c0.129,0.613,0.336,1.041,0.622,1.283
			c0.285,0.241,0.618,0.362,0.998,0.362c0.537,0,1.141-0.146,1.816-0.44l0.363,0.907l-7.106,2.93h-1.167v-5.03
			c-2.042,2.213-3.597,3.605-4.669,4.175c-1.072,0.571-2.203,0.855-3.397,0.855c-1.33,0-2.484-0.385-3.461-1.153
			c-0.977-0.769-1.655-1.759-2.036-2.97c-0.38-1.21-0.571-2.922-0.571-5.135V18.755c0-1.124-0.121-1.902-0.363-2.334
			c-0.241-0.432-0.601-0.765-1.076-0.999c-0.476-0.234-1.336-0.341-2.58-0.324v-0.959h8.324v15.897c0,2.213,0.385,3.666,1.154,4.357
			c0.769,0.691,1.699,1.038,2.788,1.038c0.742,0,1.586-0.234,2.528-0.701c0.943-0.466,2.061-1.356,3.359-2.67V18.6
			c0-1.348-0.247-2.26-0.74-2.736s-1.518-0.73-3.074-0.765V14.14h8.094V14.138z"/>
		<path fill="#888888" d="M243.103,13.438v19.088c0,1.486,0.106,2.476,0.324,2.969c0.216,0.493,0.535,0.86,0.96,1.103
			c0.423,0.241,1.197,0.362,2.321,0.362v0.934h-11.541V36.96c1.158,0,1.936-0.112,2.334-0.336s0.713-0.596,0.947-1.116
			c0.233-0.518,0.349-1.512,0.349-2.981V23.37c0-2.575-0.078-4.243-0.233-5.004c-0.122-0.554-0.311-0.938-0.571-1.154
			s-0.615-0.324-1.063-0.324c-0.484,0-1.072,0.13-1.763,0.389l-0.363-0.933l7.158-2.905h1.141V13.438z M240.949,1.016
			c0.727,0,1.344,0.256,1.854,0.765c0.511,0.51,0.765,1.128,0.765,1.854s-0.254,1.349-0.765,1.868
			c-0.51,0.518-1.127,0.778-1.854,0.778c-0.725,0-1.349-0.26-1.867-0.778c-0.518-0.519-0.778-1.141-0.778-1.868
			s0.256-1.344,0.765-1.854C239.579,1.271,240.206,1.016,240.949,1.016z"/>
		<path fill="#888888" d="M256.561,6.332v7.806h5.55v1.815h-5.55v15.405c0,1.539,0.22,2.575,0.662,3.112
			c0.442,0.535,1.007,0.804,1.698,0.804c0.571,0,1.124-0.177,1.661-0.531c0.535-0.355,0.95-0.877,1.244-1.57h1.012
			c-0.606,1.695-1.461,2.97-2.568,3.826c-1.106,0.856-2.247,1.283-3.423,1.283c-0.795,0-1.573-0.22-2.334-0.662
			c-0.761-0.44-1.323-1.072-1.685-1.892c-0.363-0.822-0.545-2.088-0.545-3.799V15.953h-3.761v-0.856
			c0.951-0.38,1.924-1.024,2.917-1.931c0.995-0.908,1.881-1.984,2.659-3.229c0.398-0.657,0.95-1.858,1.66-3.605
			C255.758,6.332,256.561,6.332,256.561,6.332z"/>
		<path fill="#888888" d="M279.771,13.438v8.091h-0.856c-0.657-2.542-1.499-4.27-2.528-5.187c-1.028-0.916-2.338-1.374-3.928-1.374
			c-1.211,0-2.188,0.32-2.93,0.959c-0.744,0.64-1.116,1.349-1.116,2.127c0,0.969,0.277,1.799,0.831,2.49
			c0.535,0.709,1.624,1.461,3.267,2.255l3.786,1.841c3.511,1.712,5.266,3.968,5.266,6.769c0,2.162-0.818,3.903-2.452,5.226
			c-1.633,1.323-3.461,1.983-5.484,1.983c-1.452,0-3.112-0.258-4.979-0.778c-0.571-0.172-1.038-0.258-1.401-0.258
			c-0.398,0-0.708,0.224-0.933,0.674h-0.856v-8.481h0.856c0.483,2.422,1.408,4.245,2.774,5.473s2.896,1.841,4.59,1.841
			c1.194,0,2.166-0.351,2.919-1.051c0.751-0.7,1.127-1.543,1.127-2.528c0-1.193-0.419-2.196-1.258-3.008s-2.511-1.841-5.017-3.086
			c-2.507-1.245-4.15-2.368-4.928-3.372c-0.778-0.985-1.167-2.23-1.167-3.734c0-1.953,0.67-3.588,2.009-4.901
			c1.34-1.314,3.074-1.971,5.2-1.971c0.934,0,2.066,0.199,3.397,0.596c0.882,0.26,1.469,0.389,1.763,0.389
			c0.277,0,0.493-0.06,0.649-0.181c0.155-0.121,0.336-0.389,0.544-0.804C278.916,13.438,279.771,13.438,279.771,13.438z"/>
	</g>
	<g>
		<path fill="#CC5E5E" d="M293.245,37.893l6.96-32.544h26.928l-0.912,4.176h-22.368l-1.968,9.36h19.824l-0.912,4.176h-19.824
			l-2.256,10.656h22.608l-0.912,4.176H293.245z"/>
		<path fill="#CC5E5E" d="M323.112,37.893l6.96-32.544H357l-0.912,4.176H333.72l-1.968,9.36h19.824l-0.912,4.176H330.84
			l-2.256,10.656h22.608l-0.912,4.176H323.112z"/>
	</g>
</g>
<g id="Layer_2">
</g>
</svg>
